STARTFONT 2.1
COMMENT $Xorg: $
COMMENT ISO10646-1 extension by Markus Kuhn <mkuhn@acm.org>, 2001-03-20
COMMENT  (c) Copyright Bigelow & Holmes 1986, 1985. Lucida is a registered
COMMENT  trademark of Bigelow & Holmes. See LEGAL NOTICE file for terms 
COMMENT  of the license. 
FONT -B&H-Lucida-Bold-I-Normal-Sans-17-120-100-100-P-108-ISO10646-1
SIZE 12 100 100
FONTBOUNDINGBOX 35 25 -12 -7
STARTPROPERTIES 22
COMMENT Begin LogicalFontDescription
FONTNAME_REGISTRY ""
FOUNDRY "B&H"
FAMILY_NAME "Lucida"
WEIGHT_NAME "Bold"
SLANT "I"
SETWIDTH_NAME "Normal"
ADD_STYLE_NAME "Sans"
PIXEL_SIZE 17
POINT_SIZE 120
RESOLUTION_X 100
RESOLUTION_Y 100
SPACING "P"
AVERAGE_WIDTH 108
CHARSET_REGISTRY "ISO10646"
CHARSET_ENCODING "1"
COMMENT END LogicalFontDescription
FONT_ASCENT 15
FONT_DESCENT 4
DEFAULT_CHAR 0
COPYRIGHT "Copyright Bigelow & Holmes 1986, 1985."
FACE_NAME "Lucida Sans Bold Italic"
X_HEIGHT 9
CAP_HEIGHT 12
ENDPROPERTIES
CHARS 723
STARTCHAR char0
ENCODING 0
SWIDTH 813 0
DWIDTH 14 0
BBX 13 11 2 0
BITMAP
AAA8
0000
8008
0000
8008
0000
8008
0000
8008
0000
AAA8
ENDCHAR
STARTCHAR space
ENCODING 32
SWIDTH 343 0
DWIDTH 6 0
BBX 1 1 0 0
BITMAP
00
ENDCHAR
STARTCHAR exclam
ENCODING 33
SWIDTH 343 0
DWIDTH 6 0
BBX 6 12 1 0
BITMAP
3C
3C
38
38
38
38
30
70
00
00
F0
F0
ENDCHAR
STARTCHAR quotedbl
ENCODING 34
SWIDTH 530 0
DWIDTH 9 0
BBX 8 6 3 6
BITMAP
E7
E7
E7
E7
66
66
ENDCHAR
STARTCHAR numbersign
ENCODING 35
SWIDTH 687 0
DWIDTH 12 0
BBX 11 12 2 0
BITMAP
0760
06E0
0EC0
7FE0
7FE0
1B80
3B00
FFC0
FFC0
6E00
EC00
DC00
ENDCHAR
STARTCHAR dollar
ENCODING 36
SWIDTH 687 0
DWIDTH 12 0
BBX 10 17 2 -2
BITMAP
0300
0300
0E00
1FC0
3FC0
3A40
3E00
1E00
1E00
0F00
0F80
0B80
8B80
FF00
FE00
1800
1800
ENDCHAR
STARTCHAR percent
ENCODING 37
SWIDTH 908 0
DWIDTH 15 0
BBX 14 12 2 0
BITMAP
3C1C
7C38
EE70
CCE0
FDC0
7B80
0778
0EFC
1CCC
39DC
70F8
E0F0
ENDCHAR
STARTCHAR ampersand
ENCODING 38
SWIDTH 816 0
DWIDTH 14 0
BBX 13 12 1 0
BITMAP
07C0
0FE0
1EE0
1EC0
0F80
1F18
7738
E7B0
E3E0
F1C0
FFC0
3EF0
ENDCHAR
STARTCHAR quotesingle
ENCODING 39
SWIDTH 265 0
DWIDTH 4 0
BBX 3 5 3 7
BITMAP
E0
E0
E0
E0
60
ENDCHAR
STARTCHAR parenleft
ENCODING 40
SWIDTH 386 0
DWIDTH 7 0
BBX 7 15 1 -3
BITMAP
02
0C
1C
38
70
70
F0
E0
E0
E0
E0
E0
70
30
10
ENDCHAR
STARTCHAR parenright
ENCODING 41
SWIDTH 386 0
DWIDTH 7 0
BBX 7 15 0 -3
BITMAP
10
18
1C
1C
0E
0E
1E
1E
1C
1C
38
38
70
E0
80
ENDCHAR
STARTCHAR asterisk
ENCODING 42
SWIDTH 464 0
DWIDTH 8 0
BBX 7 6 2 6
BITMAP
1C
5A
EE
28
EC
48
ENDCHAR
STARTCHAR plus
ENCODING 43
SWIDTH 687 0
DWIDTH 12 0
BBX 10 10 2 0
BITMAP
0600
0600
0400
0C00
FFC0
FFC0
0C00
0800
1800
1800
ENDCHAR
STARTCHAR comma
ENCODING 44
SWIDTH 343 0
DWIDTH 6 0
BBX 4 6 1 -3
BITMAP
70
70
F0
20
60
C0
ENDCHAR
STARTCHAR hyphen
ENCODING 45
SWIDTH 289 0
DWIDTH 5 0
BBX 4 2 2 4
BITMAP
F0
F0
ENDCHAR
STARTCHAR period
ENCODING 46
SWIDTH 343 0
DWIDTH 6 0
BBX 4 3 1 0
BITMAP
70
F0
E0
ENDCHAR
STARTCHAR slash
ENCODING 47
SWIDTH 596 0
DWIDTH 10 0
BBX 13 15 0 -3
BITMAP
0038
0070
0060
00E0
01C0
0180
0300
0700
0600
0C00
1C00
3800
3000
7000
E000
ENDCHAR
STARTCHAR zero
ENCODING 48
SWIDTH 687 0
DWIDTH 12 0
BBX 11 12 2 0
BITMAP
0F80
1FC0
39E0
70E0
71E0
F1E0
F1E0
E1C0
E3C0
F380
7F00
3C00
ENDCHAR
STARTCHAR one
ENCODING 49
SWIDTH 687 0
DWIDTH 12 0
BBX 6 12 4 0
BITMAP
7C
FC
38
38
38
78
78
70
70
70
F0
E0
ENDCHAR
STARTCHAR two
ENCODING 50
SWIDTH 687 0
DWIDTH 12 0
BBX 11 12 1 0
BITMAP
1F80
3FE0
21E0
00E0
01E0
03C0
0F00
1E00
3800
7000
FFC0
FF80
ENDCHAR
STARTCHAR three
ENCODING 51
SWIDTH 687 0
DWIDTH 12 0
BBX 10 12 2 0
BITMAP
1F80
3FC0
23C0
01C0
0380
3E00
3F00
0780
0380
8780
FF00
FE00
ENDCHAR
STARTCHAR four
ENCODING 52
SWIDTH 687 0
DWIDTH 12 0
BBX 10 12 1 0
BITMAP
01C0
03C0
0780
0D80
1B80
3B80
7380
FFC0
FFC0
0700
0700
0700
ENDCHAR
STARTCHAR five
ENCODING 53
SWIDTH 687 0
DWIDTH 12 0
BBX 11 12 2 0
BITMAP
1FE0
3FE0
3000
3000
3E00
7F00
0780
03C0
03C0
8780
FF80
FE00
ENDCHAR
STARTCHAR six
ENCODING 54
SWIDTH 687 0
DWIDTH 12 0
BBX 11 12 2 0
BITMAP
07E0
1FE0
3C20
7800
7780
FFC0
F3C0
E1C0
E1C0
F380
7F80
3E00
ENDCHAR
STARTCHAR seven
ENCODING 55
SWIDTH 687 0
DWIDTH 12 0
BBX 10 12 3 0
BITMAP
7FC0
FFC0
0380
0700
0E00
0E00
1C00
3800
7000
7000
F000
E000
ENDCHAR
STARTCHAR eight
ENCODING 56
SWIDTH 687 0
DWIDTH 12 0
BBX 10 12 2 0
BITMAP
0F80
1FC0
39C0
39C0
3F80
1F00
7F80
E380
E180
E380
FF00
3E00
ENDCHAR
STARTCHAR nine
ENCODING 57
SWIDTH 687 0
DWIDTH 12 0
BBX 11 12 2 0
BITMAP
0F80
3FC0
39E0
70E0
70E0
79E0
7FE0
3DC0
03C0
8780
FF00
FC00
ENDCHAR
STARTCHAR colon
ENCODING 58
SWIDTH 343 0
DWIDTH 6 0
BBX 5 9 1 0
BITMAP
38
78
70
00
00
00
70
F0
E0
ENDCHAR
STARTCHAR semicolon
ENCODING 59
SWIDTH 343 0
DWIDTH 6 0
BBX 6 12 1 -3
BITMAP
3C
3C
38
00
00
00
78
70
70
30
70
E0
ENDCHAR
STARTCHAR less
ENCODING 60
SWIDTH 687 0
DWIDTH 12 0
BBX 11 10 2 0
BITMAP
0020
00E0
03C0
1F00
FC00
7800
1C00
0700
0380
0080
ENDCHAR
STARTCHAR equal
ENCODING 61
SWIDTH 687 0
DWIDTH 12 0
BBX 11 6 1 2
BITMAP
7FE0
7FE0
0000
0000
FFC0
FFC0
ENDCHAR
STARTCHAR greater
ENCODING 62
SWIDTH 687 0
DWIDTH 12 0
BBX 11 10 1 0
BITMAP
2000
3800
1C00
0700
03C0
07E0
1F00
7800
E000
8000
ENDCHAR
STARTCHAR question
ENCODING 63
SWIDTH 539 0
DWIDTH 9 0
BBX 8 12 2 0
BITMAP
FE
FF
8F
0F
0E
1C
38
70
70
00
F0
E0
ENDCHAR
STARTCHAR at
ENCODING 64
SWIDTH 833 0
DWIDTH 14 0
BBX 14 12 1 0
BITMAP
07E0
1C18
3008
63E4
4444
C8C4
88C4
99CC
9ED8
4CF0
2080
1F00
ENDCHAR
STARTCHAR A
ENCODING 65
SWIDTH 771 0
DWIDTH 13 0
BBX 12 12 1 0
BITMAP
03C0
03C0
07C0
07C0
0DE0
0CE0
18E0
3FE0
3FE0
70F0
6070
E070
ENDCHAR
STARTCHAR B
ENCODING 66
SWIDTH 660 0
DWIDTH 11 0
BBX 10 12 2 0
BITMAP
3F80
3FC0
39C0
39C0
7380
7E00
7F00
7380
7380
E380
FF80
FE00
ENDCHAR
STARTCHAR C
ENCODING 67
SWIDTH 737 0
DWIDTH 13 0
BBX 12 12 2 0
BITMAP
07F0
1FF0
3C10
7800
7000
F000
F000
F000
F000
F840
7FC0
3F80
ENDCHAR
STARTCHAR D
ENCODING 68
SWIDTH 822 0
DWIDTH 14 0
BBX 13 12 2 0
BITMAP
3FE0
3FF0
3878
3878
7878
7078
7078
7070
70F0
F1E0
FFC0
FF00
ENDCHAR
STARTCHAR E
ENCODING 69
SWIDTH 642 0
DWIDTH 11 0
BBX 11 12 1 0
BITMAP
3FE0
3FE0
3800
3800
3800
7F80
7F80
7000
7000
7000
FF80
FF80
ENDCHAR
STARTCHAR F
ENCODING 70
SWIDTH 614 0
DWIDTH 10 0
BBX 11 12 1 0
BITMAP
3FE0
3FE0
3800
3800
3800
7F80
7F80
7000
7000
7000
F000
E000
ENDCHAR
STARTCHAR G
ENCODING 71
SWIDTH 755 0
DWIDTH 13 0
BBX 12 12 2 0
BITMAP
07F0
1FF0
3C10
7800
7000
F000
F0E0
F0E0
F1C0
F9C0
7FC0
3F80
ENDCHAR
STARTCHAR H
ENCODING 72
SWIDTH 813 0
DWIDTH 14 0
BBX 13 12 2 0
BITMAP
3C38
3838
3878
3870
7870
7FF0
7FF0
70F0
70E0
F0E0
E0E0
E1E0
ENDCHAR
STARTCHAR I
ENCODING 73
SWIDTH 361 0
DWIDTH 6 0
BBX 6 12 1 0
BITMAP
3C
3C
38
38
38
78
78
70
70
70
F0
F0
ENDCHAR
STARTCHAR J
ENCODING 74
SWIDTH 502 0
DWIDTH 9 0
BBX 10 15 0 -3
BITMAP
01C0
03C0
0380
0380
0380
0380
0780
0700
0700
0700
0700
0F00
0E00
FE00
F800
ENDCHAR
STARTCHAR K
ENCODING 75
SWIDTH 753 0
DWIDTH 13 0
BBX 12 12 1 0
BITMAP
3C70
3CE0
39C0
3B80
3B00
7F00
7F00
7780
73C0
73C0
F1E0
E0F0
ENDCHAR
STARTCHAR L
ENCODING 76
SWIDTH 623 0
DWIDTH 11 0
BBX 9 12 2 0
BITMAP
3C00
3800
3800
3800
7800
7000
7000
7000
7000
F000
FF80
FF80
ENDCHAR
STARTCHAR M
ENCODING 77
SWIDTH 940 0
DWIDTH 16 0
BBX 16 12 1 0
BITMAP
3E0F
3E1F
3E1E
3E3E
3E3E
766E
77EE
67DC
679C
679C
E71C
E03C
ENDCHAR
STARTCHAR N
ENCODING 78
SWIDTH 789 0
DWIDTH 13 0
BBX 13 12 1 0
BITMAP
3838
3C38
3C30
3E30
3E30
7770
7770
63E0
63E0
61E0
E1E0
E0E0
ENDCHAR
STARTCHAR O
ENCODING 79
SWIDTH 855 0
DWIDTH 15 0
BBX 14 12 2 0
BITMAP
07E0
1FF8
3C78
783C
703C
F03C
F038
F078
F070
F0E0
7FC0
1F00
ENDCHAR
STARTCHAR P
ENCODING 80
SWIDTH 645 0
DWIDTH 11 0
BBX 11 12 1 0
BITMAP
3FC0
3FE0
38E0
38E0
39C0
7F80
7F00
7000
7000
7000
E000
E000
ENDCHAR
STARTCHAR Q
ENCODING 81
SWIDTH 855 0
DWIDTH 15 0
BBX 14 15 2 -3
BITMAP
07E0
1FF8
3C78
783C
703C
F03C
F038
F078
F070
F0E0
7FC0
1F80
01F0
00FC
0030
ENDCHAR
STARTCHAR R
ENCODING 82
SWIDTH 708 0
DWIDTH 12 0
BBX 11 12 1 0
BITMAP
3FC0
3FE0
38E0
38E0
39C0
7F80
7F00
7700
7380
7380
E3C0
E1C0
ENDCHAR
STARTCHAR S
ENCODING 83
SWIDTH 639 0
DWIDTH 11 0
BBX 10 12 1 0
BITMAP
0FC0
3FC0
3840
3800
3C00
3E00
0F80
0780
0380
C780
FF00
FC00
ENDCHAR
STARTCHAR T
ENCODING 84
SWIDTH 747 0
DWIDTH 13 0
BBX 13 12 2 0
BITMAP
FFF8
FFF8
0700
0F00
0E00
0E00
0E00
1E00
1E00
1C00
1C00
1C00
ENDCHAR
STARTCHAR U
ENCODING 85
SWIDTH 759 0
DWIDTH 13 0
BBX 12 12 2 0
BITMAP
3870
7870
7070
70E0
70E0
F0E0
F0E0
E0C0
E1C0
F1C0
7F80
3F00
ENDCHAR
STARTCHAR V
ENCODING 86
SWIDTH 765 0
DWIDTH 13 0
BBX 12 12 3 0
BITMAP
E070
F060
F0E0
70C0
7180
7180
7300
7B00
7E00
3E00
3C00
3C00
ENDCHAR
STARTCHAR W
ENCODING 87
SWIDTH 991 0
DWIDTH 17 0
BBX 16 12 3 0
BITMAP
E1C7
E3C6
E3CE
E7CC
E7DC
E7D8
EDF8
EDF0
F9F0
F9E0
F1E0
71C0
ENDCHAR
STARTCHAR X
ENCODING 88
SWIDTH 696 0
DWIDTH 12 0
BBX 13 12 0 0
BITMAP
1C38
1E70
0EE0
0FC0
0F80
0700
0780
0F80
1F80
3BC0
71C0
E1E0
ENDCHAR
STARTCHAR Y
ENCODING 89
SWIDTH 681 0
DWIDTH 12 0
BBX 11 12 3 0
BITMAP
E0E0
71C0
7380
7B00
3E00
3E00
3C00
3C00
3800
3800
3800
7800
ENDCHAR
STARTCHAR Z
ENCODING 90
SWIDTH 687 0
DWIDTH 12 0
BBX 12 12 1 0
BITMAP
1FF0
3FF0
01E0
03C0
0780
0F80
0F00
1E00
3C00
7800
FFC0
FFC0
ENDCHAR
STARTCHAR bracketleft
ENCODING 91
SWIDTH 386 0
DWIDTH 7 0
BBX 7 15 1 -3
BITMAP
1E
1E
38
38
38
30
30
70
70
70
60
60
E0
F0
F0
ENDCHAR
STARTCHAR backslash
ENCODING 92
SWIDTH 566 0
DWIDTH 10 0
BBX 6 15 3 -3
BITMAP
C0
E0
60
60
60
70
30
30
30
38
18
18
18
1C
0C
ENDCHAR
STARTCHAR bracketright
ENCODING 93
SWIDTH 386 0
DWIDTH 7 0
BBX 7 15 1 -3
BITMAP
1E
1E
0E
0C
0C
1C
1C
1C
18
18
38
38
38
F0
F0
ENDCHAR
STARTCHAR asciicircum
ENCODING 94
SWIDTH 687 0
DWIDTH 12 0
BBX 10 10 1 2
BITMAP
0200
0200
0700
0700
0F00
1980
3980
3180
60C0
E0C0
ENDCHAR
STARTCHAR underscore
ENCODING 95
SWIDTH 500 0
DWIDTH 9 0
BBX 8 2 0 -2
BITMAP
FF
FF
ENDCHAR
STARTCHAR grave
ENCODING 96
SWIDTH 663 0
DWIDTH 11 0
BBX 4 2 6 10
BITMAP
E0
30
ENDCHAR
STARTCHAR a
ENCODING 97
SWIDTH 681 0
DWIDTH 12 0
BBX 11 9 1 0
BITMAP
0FE0
1FE0
39C0
71C0
73C0
E7C0
EFC0
FB80
7380
ENDCHAR
STARTCHAR b
ENCODING 98
SWIDTH 681 0
DWIDTH 12 0
BBX 11 12 1 0
BITMAP
1C00
3C00
3C00
39C0
3BE0
7FE0
74E0
79C0
71C0
7380
FF00
FE00
ENDCHAR
STARTCHAR c
ENCODING 99
SWIDTH 548 0
DWIDTH 9 0
BBX 9 9 1 0
BITMAP
0F80
3F80
7880
7000
F000
F000
F100
FF00
7E00
ENDCHAR
STARTCHAR d
ENCODING 100
SWIDTH 681 0
DWIDTH 12 0
BBX 12 12 1 0
BITMAP
00F0
00F0
00E0
0FE0
1FE0
39E0
71E0
73C0
E7C0
EDC0
FBC0
7380
ENDCHAR
STARTCHAR e
ENCODING 101
SWIDTH 612 0
DWIDTH 10 0
BBX 9 9 1 0
BITMAP
0F00
3F80
7380
7780
FF00
FC00
E080
FF80
3E00
ENDCHAR
STARTCHAR f
ENCODING 102
SWIDTH 464 0
DWIDTH 8 0
BBX 10 15 1 -3
BITMAP
07C0
1FC0
1C40
7F00
7F00
3800
3800
3800
7800
7000
7000
7000
7000
F000
E000
ENDCHAR
STARTCHAR g
ENCODING 103
SWIDTH 674 0
DWIDTH 11 0
BBX 11 12 1 -3
BITMAP
07E0
1FE0
39E0
71C0
73C0
77C0
7DC0
7BC0
7380
8380
FF00
FE00
ENDCHAR
STARTCHAR h
ENCODING 104
SWIDTH 675 0
DWIDTH 11 0
BBX 10 12 1 0
BITMAP
3C00
3800
3800
3980
3BC0
77C0
7DC0
7BC0
7380
7380
E380
E780
ENDCHAR
STARTCHAR i
ENCODING 105
SWIDTH 343 0
DWIDTH 6 0
BBX 6 12 1 0
BITMAP
1C
3C
00
38
38
78
70
70
70
70
F0
E0
ENDCHAR
STARTCHAR j
ENCODING 106
SWIDTH 407 0
DWIDTH 7 0
BBX 10 15 -1 -3
BITMAP
01C0
03C0
0000
0380
0380
0780
0700
0700
0700
0F00
0F00
0E00
8E00
FC00
F800
ENDCHAR
STARTCHAR k
ENCODING 107
SWIDTH 666 0
DWIDTH 11 0
BBX 11 12 1 0
BITMAP
1C00
3C00
3800
38E0
39C0
7B80
7700
7F00
7700
7780
F380
E3C0
ENDCHAR
STARTCHAR l
ENCODING 108
SWIDTH 343 0
DWIDTH 6 0
BBX 6 12 1 0
BITMAP
1C
3C
38
38
38
78
78
70
70
70
F0
E0
ENDCHAR
STARTCHAR m
ENCODING 109
SWIDTH 991 0
DWIDTH 17 0
BBX 16 9 1 0
BITMAP
39CE
3BDF
77DF
7DE7
79EE
73CE
738E
E38E
E39E
ENDCHAR
STARTCHAR n
ENCODING 110
SWIDTH 675 0
DWIDTH 11 0
BBX 10 9 1 0
BITMAP
3980
7BC0
77C0
7FC0
7BC0
7380
F380
E380
E780
ENDCHAR
STARTCHAR o
ENCODING 111
SWIDTH 663 0
DWIDTH 11 0
BBX 10 9 1 0
BITMAP
0F80
3FC0
79C0
71C0
E1C0
E1C0
F380
FF00
3C00
ENDCHAR
STARTCHAR p
ENCODING 112
SWIDTH 681 0
DWIDTH 12 0
BBX 11 12 1 -3
BITMAP
3DC0
3BE0
3EE0
3CE0
79E0
79C0
7380
7F00
7E00
F000
F000
E000
ENDCHAR
STARTCHAR q
ENCODING 113
SWIDTH 681 0
DWIDTH 12 0
BBX 11 12 1 -3
BITMAP
0FE0
1FE0
39C0
71C0
73C0
E5C0
FFC0
FB80
7380
0380
0780
0780
ENDCHAR
STARTCHAR r
ENCODING 114
SWIDTH 542 0
DWIDTH 9 0
BBX 9 9 1 0
BITMAP
3980
7B00
7700
7C00
7800
7000
F000
E000
E000
ENDCHAR
STARTCHAR s
ENCODING 115
SWIDTH 527 0
DWIDTH 9 0
BBX 9 9 1 0
BITMAP
1F80
3F80
3800
3C00
1E00
0F00
C700
FF00
FC00
ENDCHAR
STARTCHAR t
ENCODING 116
SWIDTH 437 0
DWIDTH 7 0
BBX 6 11 2 0
BITMAP
38
78
FC
FC
70
70
70
F0
F0
F8
78
ENDCHAR
STARTCHAR u
ENCODING 117
SWIDTH 675 0
DWIDTH 11 0
BBX 10 9 2 0
BITMAP
79C0
71C0
73C0
7380
F780
EF80
FB80
F780
6700
ENDCHAR
STARTCHAR v
ENCODING 118
SWIDTH 630 0
DWIDTH 11 0
BBX 10 9 2 0
BITMAP
E1C0
E180
F380
7300
7600
7600
7C00
7C00
3800
ENDCHAR
STARTCHAR w
ENCODING 119
SWIDTH 878 0
DWIDTH 15 0
BBX 14 9 2 0
BITMAP
E39C
E798
E7B8
EFB0
EFF0
FBE0
FBE0
F3C0
F3C0
ENDCHAR
STARTCHAR x
ENCODING 120
SWIDTH 563 0
DWIDTH 10 0
BBX 11 9 0 0
BITMAP
3CE0
1DC0
1F80
0F00
0E00
1F00
3F00
7780
E380
ENDCHAR
STARTCHAR y
ENCODING 121
SWIDTH 633 0
DWIDTH 11 0
BBX 12 12 1 -3
BITMAP
7870
38E0
38C0
39C0
3F80
3F00
1E00
1E00
1C00
3800
7800
F000
ENDCHAR
STARTCHAR z
ENCODING 122
SWIDTH 630 0
DWIDTH 11 0
BBX 10 9 1 0
BITMAP
3FC0
3FC0
0780
0F00
1E00
3C00
7800
FF80
FF80
ENDCHAR
STARTCHAR braceleft
ENCODING 123
SWIDTH 386 0
DWIDTH 7 0
BBX 7 15 1 -3
BITMAP
0E
1E
3C
3C
1C
18
78
E0
70
70
70
F0
F0
F0
70
ENDCHAR
STARTCHAR bar
ENCODING 124
SWIDTH 259 0
DWIDTH 4 0
BBX 5 15 1 -3
BITMAP
18
18
10
30
30
30
30
20
60
60
60
60
40
C0
C0
ENDCHAR
STARTCHAR braceright
ENCODING 125
SWIDTH 386 0
DWIDTH 7 0
BBX 7 15 0 -3
BITMAP
1C
1E
1E
1E
3C
1C
1C
0E
3C
30
70
78
78
F0
E0
ENDCHAR
STARTCHAR asciitilde
ENCODING 126
SWIDTH 687 0
DWIDTH 12 0
BBX 10 4 2 3
BITMAP
78C0
7CC0
CF80
C780
ENDCHAR
STARTCHAR space
ENCODING 160
SWIDTH 343 0
DWIDTH 6 0
BBX 1 1 0 0
BITMAP
00
ENDCHAR
STARTCHAR exclamdown
ENCODING 161
SWIDTH 343 0
DWIDTH 6 0
BBX 6 12 1 -3
BITMAP
3C
3C
00
00
38
30
70
70
70
70
F0
E0
ENDCHAR
STARTCHAR cent
ENCODING 162
SWIDTH 687 0
DWIDTH 12 0
BBX 10 12 3 0
BITMAP
0300
0300
1FC0
3880
7000
F000
F000
F000
FF80
7F00
0C00
0C00
ENDCHAR
STARTCHAR sterling
ENCODING 163
SWIDTH 687 0
DWIDTH 12 0
BBX 11 12 2 0
BITMAP
03E0
0FE0
0E20
1E00
1E00
3F00
7F00
1C00
3C00
3000
FF80
FF80
ENDCHAR
STARTCHAR currency
ENCODING 164
SWIDTH 687 0
DWIDTH 12 0
BBX 13 12 1 0
BITMAP
1010
3038
1B70
1FE0
1DC0
18C0
18C0
1DC0
3FC0
7FC0
E060
4040
ENDCHAR
STARTCHAR yen
ENCODING 165
SWIDTH 687 0
DWIDTH 12 0
BBX 11 12 3 0
BITMAP
F0E0
7B80
3F00
3E00
7F00
FF00
3C00
FE00
FE00
3800
3800
7800
ENDCHAR
STARTCHAR brokenbar
ENCODING 166
SWIDTH 259 0
DWIDTH 4 0
BBX 5 15 1 -3
BITMAP
18
18
10
30
30
30
00
00
00
60
60
60
40
C0
C0
ENDCHAR
STARTCHAR section
ENCODING 167
SWIDTH 687 0
DWIDTH 12 0
BBX 10 15 2 -3
BITMAP
0FC0
1FC0
3840
3C00
3E00
3F80
3780
7180
7980
3F00
1F00
0700
C700
FF00
FC00
ENDCHAR
STARTCHAR dieresis
ENCODING 168
SWIDTH 663 0
DWIDTH 11 0
BBX 6 2 5 10
BITMAP
CC
CC
ENDCHAR
STARTCHAR copyright
ENCODING 169
SWIDTH 834 0
DWIDTH 14 0
BBX 12 12 2 0
BITMAP
0F00
30C0
67A0
5C30
D810
B010
B010
F010
5830
6F20
30C0
0F00
ENDCHAR
STARTCHAR ordfeminine
ENCODING 170
SWIDTH 539 0
DWIDTH 9 0
BBX 8 6 3 6
BITMAP
1F
7F
E6
EE
F6
EE
ENDCHAR
STARTCHAR guillemotleft
ENCODING 171
SWIDTH 633 0
DWIDTH 11 0
BBX 10 8 2 0
BITMAP
0880
1DC0
3B80
7F00
E700
7700
3380
1100
ENDCHAR
STARTCHAR logicalnot
ENCODING 172
SWIDTH 687 0
DWIDTH 12 0
BBX 10 6 2 2
BITMAP
FFC0
FFC0
00C0
0080
0180
0180
ENDCHAR
STARTCHAR hyphen
ENCODING 173
SWIDTH 289 0
DWIDTH 5 0
BBX 4 2 2 4
BITMAP
F0
F0
ENDCHAR
STARTCHAR registered
ENCODING 174
SWIDTH 691 0
DWIDTH 12 0
BBX 9 9 3 3
BITMAP
1C00
6300
5F00
9F80
9C80
9580
7500
6300
1C00
ENDCHAR
STARTCHAR macron
ENCODING 175
SWIDTH 663 0
DWIDTH 11 0
BBX 6 2 5 10
BITMAP
FC
FC
ENDCHAR
STARTCHAR degree
ENCODING 176
SWIDTH 241 0
DWIDTH 4 0
BBX 3 3 3 9
BITMAP
E0
A0
E0
ENDCHAR
STARTCHAR plusminus
ENCODING 177
SWIDTH 687 0
DWIDTH 12 0
BBX 11 10 1 0
BITMAP
0300
0200
0600
7FE0
7FE0
0600
0C00
0000
FFC0
FFC0
ENDCHAR
STARTCHAR twosuperior
ENCODING 178
SWIDTH 539 0
DWIDTH 7 0
BBX 7 7 -10 5
BITMAP
7C
06
06
0C
30
60
FC
ENDCHAR
STARTCHAR threesuperior
ENCODING 179
SWIDTH 539 0
DWIDTH 7 0
BBX 6 7 -10 5
BITMAP
7C
0C
08
78
18
1C
F0
ENDCHAR
STARTCHAR acute
ENCODING 180
SWIDTH 663 0
DWIDTH 11 0
BBX 5 2 6 10
BITMAP
38
E0
ENDCHAR
STARTCHAR mu
ENCODING 181
SWIDTH 681 0
DWIDTH 12 0
BBX 11 12 1 -3
BITMAP
38E0
39E0
39C0
39C0
7BC0
77C0
7DC0
7F80
7B80
F000
E000
E000
ENDCHAR
STARTCHAR paragraph
ENCODING 182
SWIDTH 687 0
DWIDTH 12 0
BBX 8 15 3 -3
BITMAP
7F
FB
FA
FA
F6
76
36
34
34
2C
2C
6C
68
68
58
ENDCHAR
STARTCHAR periodcentered
ENCODING 183
SWIDTH 343 0
DWIDTH 12 0
BBX 3 2 5 4
BITMAP
E0
E0
ENDCHAR
STARTCHAR cedilla
ENCODING 184
SWIDTH 663 0
DWIDTH 11 0
BBX 3 3 4 -3
BITMAP
60
60
E0
ENDCHAR
STARTCHAR onesuperior
ENCODING 185
SWIDTH 539 0
DWIDTH 7 0
BBX 3 7 -12 5
BITMAP
E0
60
60
40
C0
C0
C0
ENDCHAR
STARTCHAR ordmasculine
ENCODING 186
SWIDTH 539 0
DWIDTH 9 0
BBX 9 6 2 6
BITMAP
1F00
7F80
6380
E300
FF00
7C00
ENDCHAR
STARTCHAR guillemotright
ENCODING 187
SWIDTH 633 0
DWIDTH 11 0
BBX 10 8 1 0
BITMAP
2200
7300
3B80
39C0
3F80
7700
EE00
4400
ENDCHAR
STARTCHAR onequarter
ENCODING 188
SWIDTH 1089 0
DWIDTH 16 0
BBX 14 12 6 0
BITMAP
701C
3038
3070
20E0
61C0
638C
671C
0E28
1C48
38FC
7018
E018
ENDCHAR
STARTCHAR onehalf
ENCODING 189
SWIDTH 1089 0
DWIDTH 16 0
BBX 15 12 6 0
BITMAP
701C
3038
3070
20E0
61C0
63FC
6706
0E06
1C0C
3830
7060
E0FC
ENDCHAR
STARTCHAR threequarters
ENCODING 190
SWIDTH 1149 0
DWIDTH 16 0
BBX 15 12 7 0
BITMAP
7C0E
0C1C
0838
7870
18E0
1DC6
F38E
0714
0E24
1C7E
380C
700C
ENDCHAR
STARTCHAR questiondown
ENCODING 191
SWIDTH 539 0
DWIDTH 9 0
BBX 8 12 0 -3
BITMAP
07
0F
00
0E
0E
1C
38
70
F0
F1
FF
7F
ENDCHAR
STARTCHAR Agrave
ENCODING 192
SWIDTH 771 0
DWIDTH 13 0
BBX 12 15 1 0
BITMAP
01C0
0060
0000
03C0
03C0
07C0
07C0
0DE0
0CE0
18E0
3FE0
3FE0
70F0
6070
E070
ENDCHAR
STARTCHAR Aacute
ENCODING 193
SWIDTH 771 0
DWIDTH 13 0
BBX 12 15 1 0
BITMAP
0070
01C0
0000
03C0
03C0
07C0
07C0
0DE0
0CE0
18E0
3FE0
3FE0
70F0
6070
E070
ENDCHAR
STARTCHAR Acircumflex
ENCODING 194
SWIDTH 771 0
DWIDTH 13 0
BBX 12 15 1 0
BITMAP
00E0
03B0
0000
03C0
03C0
07C0
07C0
0DE0
0CE0
18E0
3FE0
3FE0
70F0
6070
E070
ENDCHAR
STARTCHAR Atilde
ENCODING 195
SWIDTH 771 0
DWIDTH 13 0
BBX 12 15 1 0
BITMAP
03F0
07E0
0000
03C0
03C0
07C0
07C0
0DE0
0CE0
18E0
3FE0
3FE0
70F0
6070
E070
ENDCHAR
STARTCHAR Adieresis
ENCODING 196
SWIDTH 771 0
DWIDTH 13 0
BBX 12 15 1 0
BITMAP
0330
0330
0000
03C0
03C0
07C0
07C0
0DE0
0CE0
18E0
3FE0
3FE0
70F0
6070
E070
ENDCHAR
STARTCHAR Aring
ENCODING 197
SWIDTH 771 0
DWIDTH 13 0
BBX 12 15 1 0
BITMAP
01C0
01C0
0000
03C0
03C0
07C0
07C0
0DE0
0CE0
18E0
3FE0
3FE0
70F0
6070
E070
ENDCHAR
STARTCHAR AE
ENCODING 198
SWIDTH 1004 0
DWIDTH 17 0
BBX 18 12 0 0
BITMAP
007FC0
00FFC0
00F800
01F000
037000
077F00
0E7F00
0CF000
1FE000
3FE000
70FF00
C1FF00
ENDCHAR
STARTCHAR Ccedilla
ENCODING 199
SWIDTH 737 0
DWIDTH 13 0
BBX 12 15 2 -3
BITMAP
07F0
1FF0
3C10
7800
7000
F000
F000
F000
F000
F840
7FC0
3F80
0800
0C00
1C00
ENDCHAR
STARTCHAR Egrave
ENCODING 200
SWIDTH 642 0
DWIDTH 11 0
BBX 11 15 1 0
BITMAP
0700
0180
0000
3FE0
3FE0
3800
3800
3800
7F80
7F80
7000
7000
7000
FF80
FF80
ENDCHAR
STARTCHAR Eacute
ENCODING 201
SWIDTH 642 0
DWIDTH 11 0
BBX 11 15 1 0
BITMAP
01C0
0700
0000
3FE0
3FE0
3800
3800
3800
7F80
7F80
7000
7000
7000
FF80
FF80
ENDCHAR
STARTCHAR Ecircumflex
ENCODING 202
SWIDTH 642 0
DWIDTH 11 0
BBX 11 15 1 0
BITMAP
0380
0EC0
0000
3FE0
3FE0
3800
3800
3800
7F80
7F80
7000
7000
7000
FF80
FF80
ENDCHAR
STARTCHAR Edieresis
ENCODING 203
SWIDTH 642 0
DWIDTH 11 0
BBX 11 15 1 0
BITMAP
0CC0
0CC0
0000
3FE0
3FE0
3800
3800
3800
7F80
7F80
7000
7000
7000
FF80
FF80
ENDCHAR
STARTCHAR Igrave
ENCODING 204
SWIDTH 361 0
DWIDTH 6 0
BBX 6 15 1 0
BITMAP
38
0C
00
3C
3C
38
38
38
78
78
70
70
70
F0
F0
ENDCHAR
STARTCHAR Iacute
ENCODING 205
SWIDTH 361 0
DWIDTH 6 0
BBX 7 15 1 0
BITMAP
0E
38
00
3C
3C
38
38
38
78
78
70
70
70
F0
F0
ENDCHAR
STARTCHAR Icircumflex
ENCODING 206
SWIDTH 361 0
DWIDTH 6 0
BBX 7 15 1 0
BITMAP
1C
76
00
3C
3C
38
38
38
78
78
70
70
70
F0
F0
ENDCHAR
STARTCHAR Idieresis
ENCODING 207
SWIDTH 361 0
DWIDTH 6 0
BBX 8 15 1 0
BITMAP
33
33
00
3C
3C
38
38
38
78
78
70
70
70
F0
F0
ENDCHAR
STARTCHAR Eth
ENCODING 208
SWIDTH 822 0
DWIDTH 14 0
BBX 14 12 1 0
BITMAP
1FF0
1FF8
3C3C
3C3C
383C
FF3C
FF3C
3838
7878
70F0
7FE0
7F80
ENDCHAR
STARTCHAR Ntilde
ENCODING 209
SWIDTH 789 0
DWIDTH 13 0
BBX 13 15 1 0
BITMAP
03F0
07E0
0000
3838
3C38
3C30
3E30
3E30
7770
7770
63E0
63E0
61E0
E1E0
E0E0
ENDCHAR
STARTCHAR Ograve
ENCODING 210
SWIDTH 855 0
DWIDTH 15 0
BBX 14 15 2 0
BITMAP
0380
00C0
0000
07E0
1FF8
3C78
783C
703C
F03C
F038
F078
F070
F0E0
7FC0
1F00
ENDCHAR
STARTCHAR Oacute
ENCODING 211
SWIDTH 855 0
DWIDTH 15 0
BBX 14 15 2 0
BITMAP
00E0
0380
0000
07E0
1FF8
3C78
783C
703C
F03C
F038
F078
F070
F0E0
7FC0
1F00
ENDCHAR
STARTCHAR Ocircumflex
ENCODING 212
SWIDTH 855 0
DWIDTH 15 0
BBX 14 15 2 0
BITMAP
01C0
0760
0000
07E0
1FF8
3C78
783C
703C
F03C
F038
F078
F070
F0E0
7FC0
1F00
ENDCHAR
STARTCHAR Otilde
ENCODING 213
SWIDTH 855 0
DWIDTH 15 0
BBX 14 15 2 0
BITMAP
03F0
07E0
0000
07E0
1FF8
3C78
783C
703C
F03C
F038
F078
F070
F0E0
7FC0
1F00
ENDCHAR
STARTCHAR Odieresis
ENCODING 214
SWIDTH 855 0
DWIDTH 15 0
BBX 14 15 2 0
BITMAP
0660
0660
0000
07E0
1FF8
3C78
783C
703C
F03C
F038
F078
F070
F0E0
7FC0
1F00
ENDCHAR
STARTCHAR multiply
ENCODING 215
SWIDTH 687 0
DWIDTH 12 0
BBX 11 10 1 0
BITMAP
6040
30E0
39C0
1B80
0E00
0E00
3B00
7380
E180
40C0
ENDCHAR
STARTCHAR Oslash
ENCODING 216
SWIDTH 855 0
DWIDTH 15 0
BBX 16 12 3 0
BITMAP
03FF
0FFC
1E3C
3C7E
38FE
79DE
7B9C
7F3C
7E38
7C70
3FE0
EF80
ENDCHAR
STARTCHAR Ugrave
ENCODING 217
SWIDTH 759 0
DWIDTH 13 0
BBX 12 15 2 0
BITMAP
0700
0180
0000
3870
7870
7070
70E0
70E0
F0E0
F0E0
E0C0
E1C0
F1C0
7F80
3F00
ENDCHAR
STARTCHAR Uacute
ENCODING 218
SWIDTH 759 0
DWIDTH 13 0
BBX 12 15 2 0
BITMAP
01C0
0700
0000
3870
7870
7070
70E0
70E0
F0E0
F0E0
E0C0
E1C0
F1C0
7F80
3F00
ENDCHAR
STARTCHAR Ucircumflex
ENCODING 219
SWIDTH 759 0
DWIDTH 13 0
BBX 12 15 2 0
BITMAP
0380
0EC0
0000
3870
7870
7070
70E0
70E0
F0E0
F0E0
E0C0
E1C0
F1C0
7F80
3F00
ENDCHAR
STARTCHAR Udieresis
ENCODING 220
SWIDTH 759 0
DWIDTH 13 0
BBX 12 15 2 0
BITMAP
0CC0
0CC0
0000
3870
7870
7070
70E0
70E0
F0E0
F0E0
E0C0
E1C0
F1C0
7F80
3F00
ENDCHAR
STARTCHAR Yacute
ENCODING 221
SWIDTH 681 0
DWIDTH 12 0
BBX 11 15 3 0
BITMAP
0380
0E00
0000
E0E0
71C0
7380
7B00
3E00
3E00
3C00
3C00
3800
3800
3800
7800
ENDCHAR
STARTCHAR Thorn
ENCODING 222
SWIDTH 645 0
DWIDTH 11 0
BBX 10 12 2 0
BITMAP
3800
3800
3F80
3FC0
71C0
71C0
73C0
7380
7F00
FE00
E000
E000
ENDCHAR
STARTCHAR germandbls
ENCODING 223
SWIDTH 708 0
DWIDTH 12 0
BBX 11 15 1 -3
BITMAP
07C0
0FC0
1CC0
1DC0
3980
3B80
3B80
39C0
78E0
70E0
77E0
77C0
7000
E000
E000
ENDCHAR
STARTCHAR agrave
ENCODING 224
SWIDTH 681 0
DWIDTH 12 0
BBX 11 12 1 0
BITMAP
0700
0180
0000
0FE0
1FE0
39C0
71C0
73C0
E7C0
EFC0
FB80
7380
ENDCHAR
STARTCHAR aacute
ENCODING 225
SWIDTH 681 0
DWIDTH 12 0
BBX 11 12 1 0
BITMAP
01C0
0700
0000
0FE0
1FE0
39C0
71C0
73C0
E7C0
EFC0
FB80
7380
ENDCHAR
STARTCHAR acircumflex
ENCODING 226
SWIDTH 681 0
DWIDTH 12 0
BBX 11 12 1 0
BITMAP
0380
0EC0
0000
0FE0
1FE0
39C0
71C0
73C0
E7C0
EFC0
FB80
7380
ENDCHAR
STARTCHAR atilde
ENCODING 227
SWIDTH 681 0
DWIDTH 12 0
BBX 11 12 1 0
BITMAP
07E0
0FC0
0000
0FE0
1FE0
39C0
71C0
73C0
E7C0
EFC0
FB80
7380
ENDCHAR
STARTCHAR adieresis
ENCODING 228
SWIDTH 681 0
DWIDTH 12 0
BBX 11 12 1 0
BITMAP
0CC0
0CC0
0000
0FE0
1FE0
39C0
71C0
73C0
E7C0
EFC0
FB80
7380
ENDCHAR
STARTCHAR aring
ENCODING 229
SWIDTH 681 0
DWIDTH 12 0
BBX 11 12 1 0
BITMAP
0380
0380
0000
0FE0
1FE0
39C0
71C0
73C0
E7C0
EFC0
FB80
7380
ENDCHAR
STARTCHAR ae
ENCODING 230
SWIDTH 987 0
DWIDTH 17 0
BBX 15 9 2 0
BITMAP
0FDC
1FFE
39CE
73DC
F3FC
E7F0
EF82
FBFE
71F8
ENDCHAR
STARTCHAR ccedilla
ENCODING 231
SWIDTH 548 0
DWIDTH 9 0
BBX 9 12 1 -3
BITMAP
0F80
3F80
7880
7000
F000
F000
F100
FF00
7E00
1000
1800
3800
ENDCHAR
STARTCHAR egrave
ENCODING 232
SWIDTH 612 0
DWIDTH 10 0
BBX 9 12 1 0
BITMAP
0700
0180
0000
0F00
3F80
7380
7780
FF00
FC00
E080
FF80
3E00
ENDCHAR
STARTCHAR eacute
ENCODING 233
SWIDTH 612 0
DWIDTH 10 0
BBX 10 12 1 0
BITMAP
01C0
0700
0000
0F00
3F80
7380
7780
FF00
FC00
E080
FF80
3E00
ENDCHAR
STARTCHAR ecircumflex
ENCODING 234
SWIDTH 612 0
DWIDTH 10 0
BBX 9 12 1 0
BITMAP
0700
1D80
0000
0F00
3F80
7380
7780
FF00
FC00
E080
FF80
3E00
ENDCHAR
STARTCHAR edieresis
ENCODING 235
SWIDTH 612 0
DWIDTH 10 0
BBX 10 12 1 0
BITMAP
0CC0
0CC0
0000
0F00
3F80
7380
7780
FF00
FC00
E080
FF80
3E00
ENDCHAR
STARTCHAR igrave
ENCODING 236
SWIDTH 343 0
DWIDTH 6 0
BBX 6 12 1 0
BITMAP
38
0C
00
38
38
70
70
70
70
70
E0
E0
ENDCHAR
STARTCHAR iacute
ENCODING 237
SWIDTH 343 0
DWIDTH 6 0
BBX 7 12 1 0
BITMAP
0E
38
00
38
38
70
70
70
70
70
E0
E0
ENDCHAR
STARTCHAR icircumflex
ENCODING 238
SWIDTH 343 0
DWIDTH 6 0
BBX 7 12 1 0
BITMAP
1C
76
00
38
38
70
70
70
70
70
E0
E0
ENDCHAR
STARTCHAR idieresis
ENCODING 239
SWIDTH 343 0
DWIDTH 6 0
BBX 7 12 1 0
BITMAP
66
66
00
38
38
70
70
70
70
70
E0
E0
ENDCHAR
STARTCHAR eth
ENCODING 240
SWIDTH 663 0
DWIDTH 11 0
BBX 10 15 1 0
BITMAP
0100
0380
0700
3F00
3F80
3BC0
1FC0
3FC0
79C0
71C0
F1C0
E180
F380
7F00
3C00
ENDCHAR
STARTCHAR ntilde
ENCODING 241
SWIDTH 675 0
DWIDTH 11 0
BBX 11 12 1 0
BITMAP
07E0
0FC0
0000
3980
7BC0
77C0
7FC0
7BC0
7380
F380
E380
E780
ENDCHAR
STARTCHAR ograve
ENCODING 242
SWIDTH 663 0
DWIDTH 11 0
BBX 10 12 1 0
BITMAP
0700
0180
0000
0F80
3FC0
79C0
71C0
E1C0
E1C0
F380
FF00
3C00
ENDCHAR
STARTCHAR oacute
ENCODING 243
SWIDTH 663 0
DWIDTH 11 0
BBX 10 12 1 0
BITMAP
01C0
0700
0000
0F80
3FC0
79C0
71C0
E1C0
E1C0
F380
FF00
3C00
ENDCHAR
STARTCHAR ocircumflex
ENCODING 244
SWIDTH 663 0
DWIDTH 11 0
BBX 10 12 1 0
BITMAP
0380
0EC0
0000
0F80
3FC0
79C0
71C0
E1C0
E1C0
F380
FF00
3C00
ENDCHAR
STARTCHAR otilde
ENCODING 245
SWIDTH 663 0
DWIDTH 11 0
BBX 11 12 1 0
BITMAP
07E0
0FC0
0000
0F80
3FC0
79C0
71C0
E1C0
E1C0
F380
FF00
3C00
ENDCHAR
STARTCHAR odieresis
ENCODING 246
SWIDTH 663 0
DWIDTH 11 0
BBX 10 12 1 0
BITMAP
0CC0
0CC0
0000
0F80
3FC0
79C0
71C0
E1C0
E1C0
F380
FF00
3C00
ENDCHAR
STARTCHAR divide
ENCODING 247
SWIDTH 687 0
DWIDTH 12 0
BBX 10 10 2 0
BITMAP
0600
0E00
0000
0000
FFC0
FFC0
0000
0000
1C00
1800
ENDCHAR
STARTCHAR oslash
ENCODING 248
SWIDTH 663 0
DWIDTH 11 0
BBX 12 9 2 0
BITMAP
07F0
1FE0
3DE0
3BE0
76E0
7CE0
79C0
7F80
FE00
ENDCHAR
STARTCHAR ugrave
ENCODING 249
SWIDTH 675 0
DWIDTH 11 0
BBX 10 12 2 0
BITMAP
0700
0180
0000
79C0
71C0
73C0
7380
F780
EF80
FB80
F780
6700
ENDCHAR
STARTCHAR uacute
ENCODING 250
SWIDTH 675 0
DWIDTH 11 0
BBX 10 12 2 0
BITMAP
01C0
0700
0000
79C0
71C0
73C0
7380
F780
EF80
FB80
F780
6700
ENDCHAR
STARTCHAR ucircumflex
ENCODING 251
SWIDTH 675 0
DWIDTH 11 0
BBX 10 12 2 0
BITMAP
0700
1D80
0000
79C0
71C0
73C0
7380
F780
EF80
FB80
F780
6700
ENDCHAR
STARTCHAR udieresis
ENCODING 252
SWIDTH 675 0
DWIDTH 11 0
BBX 10 12 2 0
BITMAP
0CC0
0CC0
0000
79C0
71C0
73C0
7380
F780
EF80
FB80
F780
6700
ENDCHAR
STARTCHAR yacute
ENCODING 253
SWIDTH 633 0
DWIDTH 11 0
BBX 12 15 1 -3
BITMAP
01C0
0700
0000
7870
38E0
38C0
39C0
3F80
3F00
1E00
1E00
1C00
3800
7800
F000
ENDCHAR
STARTCHAR thorn
ENCODING 254
SWIDTH 681 0
DWIDTH 12 0
BBX 11 15 1 -3
BITMAP
1C00
1C00
3800
39C0
3BE0
3FE0
3CE0
79E0
79C0
7380
7F00
7E00
F000
F000
E000
ENDCHAR
STARTCHAR ydieresis
ENCODING 255
SWIDTH 633 0
DWIDTH 11 0
BBX 12 15 1 -3
BITMAP
0660
0660
0000
7870
38E0
38C0
39C0
3F80
3F00
1E00
1E00
1C00
3800
7800
F000
ENDCHAR
STARTCHAR Amacron
ENCODING 256
SWIDTH 771 0
DWIDTH 13 0
BBX 12 15 1 0
BITMAP
0FC0
0FC0
0000
03C0
03C0
07C0
07C0
0DE0
0CE0
18E0
3FE0
3FE0
70F0
6070
E070
ENDCHAR
STARTCHAR amacron
ENCODING 257
SWIDTH 681 0
DWIDTH 12 0
BBX 11 12 1 0
BITMAP
1F80
1F80
0000
0FE0
1FE0
39C0
71C0
73C0
E7C0
EFC0
FB80
7380
ENDCHAR
STARTCHAR Abreve
ENCODING 258
SWIDTH 771 0
DWIDTH 13 0
BBX 12 15 1 0
BITMAP
0DC0
0780
0000
03C0
03C0
07C0
07C0
0DE0
0CE0
18E0
3FE0
3FE0
70F0
6070
E070
ENDCHAR
STARTCHAR abreve
ENCODING 259
SWIDTH 681 0
DWIDTH 12 0
BBX 11 12 1 0
BITMAP
1B80
0F00
0000
0FE0
1FE0
39C0
71C0
73C0
E7C0
EFC0
FB80
7380
ENDCHAR
STARTCHAR Aogonek
ENCODING 260
SWIDTH 771 0
DWIDTH 13 0
BBX 12 15 1 -3
BITMAP
03C0
03C0
07C0
07C0
0DE0
0CE0
18E0
3FE0
3FE0
70F0
6070
E070
0000
0600
0700
ENDCHAR
STARTCHAR aogonek
ENCODING 261
SWIDTH 681 0
DWIDTH 12 0
BBX 11 12 1 -3
BITMAP
0FE0
1FE0
39C0
71C0
73C0
E7C0
EFC0
FB80
7380
0000
0C00
0E00
ENDCHAR
STARTCHAR Cacute
ENCODING 262
SWIDTH 737 0
DWIDTH 13 0
BBX 12 15 2 0
BITMAP
01C0
0700
0000
07F0
1FF0
3C10
7800
7000
F000
F000
F000
F000
F840
7FC0
3F80
ENDCHAR
STARTCHAR cacute
ENCODING 263
SWIDTH 548 0
DWIDTH 9 0
BBX 9 12 1 0
BITMAP
0700
1C00
0000
0F80
3F80
7880
7000
F000
F000
F100
FF00
7E00
ENDCHAR
STARTCHAR Ccircumflex
ENCODING 264
SWIDTH 737 0
DWIDTH 13 0
BBX 12 15 2 0
BITMAP
0380
0EC0
0000
07F0
1FF0
3C10
7800
7000
F000
F000
F000
F000
F840
7FC0
3F80
ENDCHAR
STARTCHAR ccircumflex
ENCODING 265
SWIDTH 548 0
DWIDTH 9 0
BBX 9 12 1 0
BITMAP
0E00
3B00
0000
0F80
3F80
7880
7000
F000
F000
F100
FF00
7E00
ENDCHAR
STARTCHAR Cdotaccent
ENCODING 266
SWIDTH 737 0
DWIDTH 13 0
BBX 12 15 2 0
BITMAP
0700
0700
0000
07F0
1FF0
3C10
7800
7000
F000
F000
F000
F000
F840
7FC0
3F80
ENDCHAR
STARTCHAR cdotaccent
ENCODING 267
SWIDTH 548 0
DWIDTH 9 0
BBX 9 12 1 0
BITMAP
0E00
0E00
0000
0F80
3F80
7880
7000
F000
F000
F100
FF00
7E00
ENDCHAR
STARTCHAR Ccaron
ENCODING 268
SWIDTH 737 0
DWIDTH 13 0
BBX 12 15 2 0
BITMAP
0DC0
0700
0000
07F0
1FF0
3C10
7800
7000
F000
F000
F000
F000
F840
7FC0
3F80
ENDCHAR
STARTCHAR ccaron
ENCODING 269
SWIDTH 548 0
DWIDTH 9 0
BBX 9 12 1 0
BITMAP
3700
1C00
0000
0F80
3F80
7880
7000
F000
F000
F100
FF00
7E00
ENDCHAR
STARTCHAR Dcaron
ENCODING 270
SWIDTH 822 0
DWIDTH 14 0
BBX 13 15 2 0
BITMAP
0DC0
0700
0000
3FE0
3FF0
3878
3878
7878
7078
7078
7070
70F0
F1E0
FFC0
FF00
ENDCHAR
STARTCHAR dcaron
ENCODING 271
SWIDTH 912 0
DWIDTH 15 0
BBX 16 12 1 0
BITMAP
00F7
00F7
00EE
0FE6
1FEC
39E0
71E0
73C0
E7C0
EDC0
FBC0
7380
ENDCHAR
STARTCHAR Dcroat
ENCODING 272
SWIDTH 822 0
DWIDTH 14 0
BBX 14 12 1 0
BITMAP
1FF0
1FF8
3C3C
3C3C
383C
FF3C
FF3C
3838
7878
70F0
7FE0
7F80
ENDCHAR
STARTCHAR dcroat
ENCODING 273
SWIDTH 681 0
DWIDTH 12 0
BBX 12 12 1 0
BITMAP
00F0
03F0
03F0
0FE0
1FE0
39E0
71E0
73C0
E7C0
EDC0
FBC0
7380
ENDCHAR
STARTCHAR Emacron
ENCODING 274
SWIDTH 642 0
DWIDTH 11 0
BBX 11 15 1 0
BITMAP
1F80
1F80
0000
3FE0
3FE0
3800
3800
3800
7F80
7F80
7000
7000
7000
FF80
FF80
ENDCHAR
STARTCHAR emacron
ENCODING 275
SWIDTH 612 0
DWIDTH 10 0
BBX 9 12 1 0
BITMAP
3F00
3F00
0000
0F00
3F80
7380
7780
FF00
FC00
E080
FF80
3E00
ENDCHAR
STARTCHAR Ebreve
ENCODING 276
SWIDTH 642 0
DWIDTH 11 0
BBX 11 15 1 0
BITMAP
1B80
0F00
0000
3FE0
3FE0
3800
3800
3800
7F80
7F80
7000
7000
7000
FF80
FF80
ENDCHAR
STARTCHAR ebreve
ENCODING 277
SWIDTH 612 0
DWIDTH 10 0
BBX 9 12 1 0
BITMAP
3700
1E00
0000
0F00
3F80
7380
7780
FF00
FC00
E080
FF80
3E00
ENDCHAR
STARTCHAR Edotaccent
ENCODING 278
SWIDTH 642 0
DWIDTH 11 0
BBX 11 15 1 0
BITMAP
0E00
0E00
0000
3FE0
3FE0
3800
3800
3800
7F80
7F80
7000
7000
7000
FF80
FF80
ENDCHAR
STARTCHAR edotaccent
ENCODING 279
SWIDTH 612 0
DWIDTH 10 0
BBX 9 12 1 0
BITMAP
0E00
0E00
0000
0F00
3F80
7380
7780
FF00
FC00
E080
FF80
3E00
ENDCHAR
STARTCHAR Eogonek
ENCODING 280
SWIDTH 642 0
DWIDTH 11 0
BBX 11 15 1 -3
BITMAP
3FE0
3FE0
3800
3800
3800
7F80
7F80
7000
7000
7000
FF80
FF80
0000
1800
1C00
ENDCHAR
STARTCHAR eogonek
ENCODING 281
SWIDTH 612 0
DWIDTH 10 0
BBX 9 12 1 -3
BITMAP
0F00
3F80
7380
7780
FF00
FC00
E080
FF80
3E00
0000
1800
1C00
ENDCHAR
STARTCHAR Ecaron
ENCODING 282
SWIDTH 642 0
DWIDTH 11 0
BBX 11 15 1 0
BITMAP
1B80
0E00
0000
3FE0
3FE0
3800
3800
3800
7F80
7F80
7000
7000
7000
FF80
FF80
ENDCHAR
STARTCHAR ecaron
ENCODING 283
SWIDTH 612 0
DWIDTH 10 0
BBX 9 12 1 0
BITMAP
3700
1C00
0000
0F00
3F80
7380
7780
FF00
FC00
E080
FF80
3E00
ENDCHAR
STARTCHAR Gcircumflex
ENCODING 284
SWIDTH 755 0
DWIDTH 13 0
BBX 12 15 2 0
BITMAP
0380
0EC0
0000
07F0
1FF0
3C10
7800
7000
F000
F0E0
F0E0
F1C0
F9C0
7FC0
3F80
ENDCHAR
STARTCHAR gcircumflex
ENCODING 285
SWIDTH 674 0
DWIDTH 11 0
BBX 11 15 1 -3
BITMAP
0700
1D80
0000
07E0
1FE0
39E0
71C0
73C0
77C0
7DC0
7BC0
7380
8380
FF00
FE00
ENDCHAR
STARTCHAR Gbreve
ENCODING 286
SWIDTH 755 0
DWIDTH 13 0
BBX 12 15 2 0
BITMAP
1B80
0F00
0000
07F0
1FF0
3C10
7800
7000
F000
F0E0
F0E0
F1C0
F9C0
7FC0
3F80
ENDCHAR
STARTCHAR gbreve
ENCODING 287
SWIDTH 674 0
DWIDTH 11 0
BBX 11 15 1 -3
BITMAP
1B80
0F00
0000
07E0
1FE0
39E0
71C0
73C0
77C0
7DC0
7BC0
7380
8380
FF00
FE00
ENDCHAR
STARTCHAR Gdotaccent
ENCODING 288
SWIDTH 755 0
DWIDTH 13 0
BBX 12 15 2 0
BITMAP
0700
0700
0000
07F0
1FF0
3C10
7800
7000
F000
F0E0
F0E0
F1C0
F9C0
7FC0
3F80
ENDCHAR
STARTCHAR gdotaccent
ENCODING 289
SWIDTH 674 0
DWIDTH 11 0
BBX 11 15 1 -3
BITMAP
0700
0700
0000
07E0
1FE0
39E0
71C0
73C0
77C0
7DC0
7BC0
7380
8380
FF00
FE00
ENDCHAR
STARTCHAR Gcommaaccent
ENCODING 290
SWIDTH 755 0
DWIDTH 13 0
BBX 12 19 2 -7
BITMAP
07F0
1FF0
3C10
7800
7000
F000
F0E0
F0E0
F1C0
F9C0
7FC0
3F80
0000
0E00
0E00
1E00
0400
0C00
1800
ENDCHAR
STARTCHAR gcommaaccent
ENCODING 291
SWIDTH 674 0
DWIDTH 11 0
BBX 11 18 1 -3
BITMAP
0180
0300
0780
0700
0700
0000
07E0
1FE0
39E0
71C0
73C0
77C0
7DC0
7BC0
7380
8380
FF00
FE00
ENDCHAR
STARTCHAR Hcircumflex
ENCODING 292
SWIDTH 813 0
DWIDTH 14 0
BBX 13 15 2 0
BITMAP
0380
0EC0
0000
3C38
3838
3878
3870
7870
7FF0
7FF0
70F0
70E0
F0E0
E0E0
E1E0
ENDCHAR
STARTCHAR hcircumflex
ENCODING 293
SWIDTH 675 0
DWIDTH 11 0
BBX 10 15 1 0
BITMAP
0E00
3B00
0000
3C00
3800
3800
3980
3BC0
77C0
7DC0
7BC0
7380
7380
E380
E780
ENDCHAR
STARTCHAR Hbar
ENCODING 294
SWIDTH 813 0
DWIDTH 14 0
BBX 13 12 2 0
BITMAP
3C38
3838
FFF8
FFF8
7870
7FF0
7FF0
70F0
70E0
F0E0
E0E0
E1E0
ENDCHAR
STARTCHAR hbar
ENCODING 295
SWIDTH 675 0
DWIDTH 11 0
BBX 10 12 1 0
BITMAP
3C00
FC00
FC00
3980
3BC0
77C0
7DC0
7BC0
7380
7380
E380
E780
ENDCHAR
STARTCHAR Itilde
ENCODING 296
SWIDTH 361 0
DWIDTH 6 0
BBX 7 15 1 0
BITMAP
7E
FC
00
3C
3C
38
38
38
78
78
70
70
70
F0
F0
ENDCHAR
STARTCHAR itilde
ENCODING 297
SWIDTH 343 0
DWIDTH 6 0
BBX 7 12 1 0
BITMAP
7E
FC
00
38
38
70
70
70
70
70
E0
E0
ENDCHAR
STARTCHAR Imacron
ENCODING 298
SWIDTH 361 0
DWIDTH 6 0
BBX 7 15 1 0
BITMAP
7E
7E
00
3C
3C
38
38
38
78
78
70
70
70
F0
F0
ENDCHAR
STARTCHAR imacron
ENCODING 299
SWIDTH 343 0
DWIDTH 6 0
BBX 6 12 1 0
BITMAP
FC
FC
00
38
38
70
70
70
70
70
E0
E0
ENDCHAR
STARTCHAR Ibreve
ENCODING 300
SWIDTH 361 0
DWIDTH 6 0
BBX 7 15 1 0
BITMAP
6E
3C
00
3C
3C
38
38
38
78
78
70
70
70
F0
F0
ENDCHAR
STARTCHAR ibreve
ENCODING 301
SWIDTH 343 0
DWIDTH 6 0
BBX 6 12 1 0
BITMAP
DC
78
00
38
38
70
70
70
70
70
E0
E0
ENDCHAR
STARTCHAR Iogonek
ENCODING 302
SWIDTH 361 0
DWIDTH 6 0
BBX 6 15 1 -3
BITMAP
3C
3C
38
38
38
78
78
70
70
70
F0
F0
00
60
70
ENDCHAR
STARTCHAR iogonek
ENCODING 303
SWIDTH 343 0
DWIDTH 6 0
BBX 6 15 1 -3
BITMAP
1C
3C
00
38
38
78
70
70
70
70
F0
E0
00
60
70
ENDCHAR
STARTCHAR Idotaccent
ENCODING 304
SWIDTH 361 0
DWIDTH 6 0
BBX 6 15 1 0
BITMAP
38
38
00
3C
3C
38
38
38
78
78
70
70
70
F0
F0
ENDCHAR
STARTCHAR dotlessi
ENCODING 305
SWIDTH 343 0
DWIDTH 6 0
BBX 5 9 1 0
BITMAP
38
38
70
70
70
70
70
E0
E0
ENDCHAR
STARTCHAR IJ
ENCODING 306
SWIDTH 845 0
DWIDTH 15 0
BBX 15 15 1 -3
BITMAP
3C0E
3C1E
381C
381C
381C
781C
783C
7038
7038
7038
F038
F078
0070
07F0
07C0
ENDCHAR
STARTCHAR ij
ENCODING 307
SWIDTH 733 0
DWIDTH 13 0
BBX 14 15 1 -3
BITMAP
1C1C
3C3C
0000
3838
3838
7878
7070
7070
7070
70F0
F0F0
E0E0
08E0
0FC0
0F80
ENDCHAR
STARTCHAR Jcircumflex
ENCODING 308
SWIDTH 502 0
DWIDTH 9 0
BBX 10 18 0 -3
BITMAP
0380
0EC0
0000
01C0
03C0
0380
0380
0380
0380
0780
0700
0700
0700
0700
0F00
0E00
FE00
F800
ENDCHAR
STARTCHAR jcircumflex
ENCODING 309
SWIDTH 407 0
DWIDTH 7 0
BBX 10 15 -1 -3
BITMAP
0700
1D80
0000
0380
0380
0780
0700
0700
0700
0F00
0F00
0E00
8E00
FC00
F800
ENDCHAR
STARTCHAR Kcommaaccent
ENCODING 310
SWIDTH 753 0
DWIDTH 13 0
BBX 12 19 1 -7
BITMAP
3C70
3CE0
39C0
3B80
3B00
7F00
7F00
7780
73C0
73C0
F1E0
E0F0
0000
0700
0700
0F00
0200
0600
0C00
ENDCHAR
STARTCHAR kcommaaccent
ENCODING 311
SWIDTH 666 0
DWIDTH 11 0
BBX 11 19 1 -7
BITMAP
1C00
3C00
3800
38E0
39C0
7B80
7700
7F00
7700
7780
F380
E3C0
0000
0E00
0E00
1E00
0400
0C00
1800
ENDCHAR
STARTCHAR kgreenlandic
ENCODING 312
SWIDTH 666 0
DWIDTH 11 0
BBX 11 9 1 0
BITMAP
38E0
39C0
7B80
7700
7F00
7700
7780
F380
E3C0
ENDCHAR
STARTCHAR Lacute
ENCODING 313
SWIDTH 623 0
DWIDTH 11 0
BBX 9 15 2 0
BITMAP
0E00
3800
0000
3C00
3800
3800
3800
7800
7000
7000
7000
7000
F000
FF80
FF80
ENDCHAR
STARTCHAR lacute
ENCODING 314
SWIDTH 343 0
DWIDTH 6 0
BBX 7 15 1 0
BITMAP
0E
38
00
1C
3C
38
38
38
78
78
70
70
70
F0
E0
ENDCHAR
STARTCHAR Lcommaaccent
ENCODING 315
SWIDTH 623 0
DWIDTH 11 0
BBX 9 19 2 -7
BITMAP
3C00
3800
3800
3800
7800
7000
7000
7000
7000
F000
FF80
FF80
0000
1C00
1C00
3C00
0800
1800
3000
ENDCHAR
STARTCHAR lcommaaccent
ENCODING 316
SWIDTH 343 0
DWIDTH 6 0
BBX 6 19 1 -7
BITMAP
1C
3C
38
38
38
78
78
70
70
70
F0
E0
00
70
70
F0
20
60
C0
ENDCHAR
STARTCHAR Lcaron
ENCODING 317
SWIDTH 857 0
DWIDTH 14 0
BBX 14 12 2 0
BITMAP
3C1C
381C
3838
3818
7830
7000
7000
7000
7000
F000
FF80
FF80
ENDCHAR
STARTCHAR lcaron
ENCODING 318
SWIDTH 591 0
DWIDTH 10 0
BBX 11 12 1 0
BITMAP
1CE0
3CE0
39C0
38C0
3980
7800
7800
7000
7000
7000
F000
E000
ENDCHAR
STARTCHAR Ldot
ENCODING 319
SWIDTH 935 0
DWIDTH 22 0
BBX 16 12 2 0
BITMAP
3C00
3800
3800
3800
7800
7000
7007
7007
7000
F000
FF80
FF80
ENDCHAR
STARTCHAR ldot
ENCODING 320
SWIDTH 669 0
DWIDTH 18 0
BBX 13 12 1 0
BITMAP
1C00
3C00
3800
3800
3800
7800
7838
7038
7000
7000
F000
E000
ENDCHAR
STARTCHAR Lslash
ENCODING 321
SWIDTH 623 0
DWIDTH 11 0
BBX 10 12 1 0
BITMAP
1E00
1C00
1C00
1F00
3E00
3C00
7800
F800
B800
7800
7FC0
7FC0
ENDCHAR
STARTCHAR lslash
ENCODING 322
SWIDTH 343 0
DWIDTH 6 0
BBX 8 12 0 0
BITMAP
0E
1E
1D
1F
1F
3C
F8
F8
38
78
78
70
ENDCHAR
STARTCHAR Nacute
ENCODING 323
SWIDTH 789 0
DWIDTH 13 0
BBX 13 15 1 0
BITMAP
01C0
0700
0000
3838
3C38
3C30
3E30
3E30
7770
7770
63E0
63E0
61E0
E1E0
E0E0
ENDCHAR
STARTCHAR nacute
ENCODING 324
SWIDTH 675 0
DWIDTH 11 0
BBX 10 12 1 0
BITMAP
0380
0E00
0000
3980
7BC0
77C0
7FC0
7BC0
7380
F380
E380
E780
ENDCHAR
STARTCHAR Ncommaaccent
ENCODING 325
SWIDTH 789 0
DWIDTH 13 0
BBX 13 19 1 -7
BITMAP
3838
3C38
3C30
3E30
3E30
7770
7770
63E0
63E0
61E0
E1E0
E0E0
0000
0700
0700
0F00
0200
0600
0C00
ENDCHAR
STARTCHAR ncommaaccent
ENCODING 326
SWIDTH 675 0
DWIDTH 11 0
BBX 10 16 1 -7
BITMAP
3980
7BC0
77C0
7FC0
7BC0
7380
F380
E380
E780
0000
1C00
1C00
3C00
0800
1800
3000
ENDCHAR
STARTCHAR Ncaron
ENCODING 327
SWIDTH 789 0
DWIDTH 13 0
BBX 13 15 1 0
BITMAP
0DC0
0700
0000
3838
3C38
3C30
3E30
3E30
7770
7770
63E0
63E0
61E0
E1E0
E0E0
ENDCHAR
STARTCHAR ncaron
ENCODING 328
SWIDTH 675 0
DWIDTH 11 0
BBX 10 12 1 0
BITMAP
1B80
0E00
0000
3980
7BC0
77C0
7FC0
7BC0
7380
F380
E380
E780
ENDCHAR
STARTCHAR napostrophe
ENCODING 329
SWIDTH 927 0
DWIDTH 15 0
BBX 13 12 2 0
BITMAP
7000
7000
E000
6730
CF78
0EF8
0FF8
0F78
0E70
1E70
1C70
1CF0
ENDCHAR
STARTCHAR Eng
ENCODING 330
SWIDTH 789 0
DWIDTH 13 0
BBX 13 15 1 -3
BITMAP
3838
3C38
3C30
3E30
3E30
7770
7770
63E0
63E0
61E0
E1E0
E1E0
11C0
1F80
1F00
ENDCHAR
STARTCHAR eng
ENCODING 331
SWIDTH 675 0
DWIDTH 11 0
BBX 10 12 1 -3
BITMAP
3980
7BC0
77C0
7FC0
7BC0
7380
F780
E780
E700
4700
7E00
7C00
ENDCHAR
STARTCHAR Omacron
ENCODING 332
SWIDTH 855 0
DWIDTH 15 0
BBX 14 15 2 0
BITMAP
07E0
07E0
0000
07E0
1FF8
3C78
783C
703C
F03C
F038
F078
F070
F0E0
7FC0
1F00
ENDCHAR
STARTCHAR omacron
ENCODING 333
SWIDTH 663 0
DWIDTH 11 0
BBX 10 12 1 0
BITMAP
1F80
1F80
0000
0F80
3FC0
79C0
71C0
E1C0
E1C0
F380
FF00
3C00
ENDCHAR
STARTCHAR Obreve
ENCODING 334
SWIDTH 855 0
DWIDTH 15 0
BBX 14 15 2 0
BITMAP
06E0
03C0
0000
07E0
1FF8
3C78
783C
703C
F03C
F038
F078
F070
F0E0
7FC0
1F00
ENDCHAR
STARTCHAR obreve
ENCODING 335
SWIDTH 663 0
DWIDTH 11 0
BBX 10 12 1 0
BITMAP
1B80
0F00
0000
0F80
3FC0
79C0
71C0
E1C0
E1C0
F380
FF00
3C00
ENDCHAR
STARTCHAR Ohungarumlaut
ENCODING 336
SWIDTH 855 0
DWIDTH 15 0
BBX 14 15 2 0
BITMAP
01B0
06C0
0000
07E0
1FF8
3C78
783C
703C
F03C
F038
F078
F070
F0E0
7FC0
1F00
ENDCHAR
STARTCHAR ohungarumlaut
ENCODING 337
SWIDTH 663 0
DWIDTH 11 0
BBX 10 12 1 0
BITMAP
06C0
1B00
0000
0F80
3FC0
79C0
71C0
E1C0
E1C0
F380
FF00
3C00
ENDCHAR
STARTCHAR OE
ENCODING 338
SWIDTH 1103 0
DWIDTH 19 0
BBX 18 12 2 0
BITMAP
07FFC0
1FFFC0
3C7800
787000
707000
F07F00
F07F00
F0F000
F0E000
F0E000
7FFF00
1FFF00
ENDCHAR
STARTCHAR oe
ENCODING 339
SWIDTH 1004 0
DWIDTH 17 0
BBX 16 9 1 0
BITMAP
0F9E
3FFF
79E7
71CE
E1FE
E1F8
F3C1
FFFF
3CFC
ENDCHAR
STARTCHAR Racute
ENCODING 340
SWIDTH 708 0
DWIDTH 12 0
BBX 11 15 1 0
BITMAP
0380
0E00
0000
3FC0
3FE0
38E0
38E0
39C0
7F80
7F00
7700
7380
7380
E3C0
E1C0
ENDCHAR
STARTCHAR racute
ENCODING 341
SWIDTH 542 0
DWIDTH 9 0
BBX 9 12 1 0
BITMAP
0700
1C00
0000
3980
7B00
7700
7C00
7800
7000
F000
E000
E000
ENDCHAR
STARTCHAR Rcommaaccent
ENCODING 342
SWIDTH 708 0
DWIDTH 12 0
BBX 11 19 1 -7
BITMAP
3FC0
3FE0
38E0
38E0
39C0
7F80
7F00
7700
7380
7380
E3C0
E1C0
0000
0E00
0E00
1E00
0400
0C00
1800
ENDCHAR
STARTCHAR rcommaaccent
ENCODING 343
SWIDTH 542 0
DWIDTH 9 0
BBX 9 16 1 -7
BITMAP
3980
7B00
7700
7C00
7800
7000
F000
E000
E000
0000
7000
7000
F000
2000
6000
C000
ENDCHAR
STARTCHAR Rcaron
ENCODING 344
SWIDTH 708 0
DWIDTH 12 0
BBX 11 15 1 0
BITMAP
1B80
0E00
0000
3FC0
3FE0
38E0
38E0
39C0
7F80
7F00
7700
7380
7380
E3C0
E1C0
ENDCHAR
STARTCHAR rcaron
ENCODING 345
SWIDTH 542 0
DWIDTH 9 0
BBX 9 12 1 0
BITMAP
3700
1C00
0000
3980
7B00
7700
7C00
7800
7000
F000
E000
E000
ENDCHAR
STARTCHAR Sacute
ENCODING 346
SWIDTH 639 0
DWIDTH 11 0
BBX 10 15 1 0
BITMAP
0380
0E00
0000
0FC0
3FC0
3840
3800
3C00
3E00
0F80
0780
0380
C780
FF00
FC00
ENDCHAR
STARTCHAR sacute
ENCODING 347
SWIDTH 527 0
DWIDTH 9 0
BBX 9 12 1 0
BITMAP
0700
1C00
0000
1F80
3F80
3800
3C00
1E00
0F00
C700
FF00
FC00
ENDCHAR
STARTCHAR Scircumflex
ENCODING 348
SWIDTH 639 0
DWIDTH 11 0
BBX 10 15 1 0
BITMAP
0700
1D80
0000
0FC0
3FC0
3840
3800
3C00
3E00
0F80
0780
0380
C780
FF00
FC00
ENDCHAR
STARTCHAR scircumflex
ENCODING 349
SWIDTH 527 0
DWIDTH 9 0
BBX 9 12 1 0
BITMAP
0E00
3B00
0000
1F80
3F80
3800
3C00
1E00
0F00
C700
FF00
FC00
ENDCHAR
STARTCHAR Scedilla
ENCODING 350
SWIDTH 639 0
DWIDTH 11 0
BBX 10 15 1 -3
BITMAP
0FC0
3FC0
3840
3800
3C00
3E00
0F80
0780
0380
C780
FF00
FC00
0C00
0C00
1C00
ENDCHAR
STARTCHAR scedilla
ENCODING 351
SWIDTH 527 0
DWIDTH 9 0
BBX 9 12 1 -3
BITMAP
1F80
3F80
3800
3C00
1E00
0F00
C700
FF00
FC00
1800
1800
3800
ENDCHAR
STARTCHAR Scaron
ENCODING 352
SWIDTH 639 0
DWIDTH 11 0
BBX 10 15 1 0
BITMAP
0DC0
0700
0000
0FC0
3FC0
3840
3800
3C00
3E00
0F80
0780
0380
C780
FF00
FC00
ENDCHAR
STARTCHAR scaron
ENCODING 353
SWIDTH 527 0
DWIDTH 9 0
BBX 10 12 1 0
BITMAP
0DC0
0700
0000
1F80
3F80
3800
3C00
1E00
0F00
C700
FF00
FC00
ENDCHAR
STARTCHAR Tcommaaccent
ENCODING 354
SWIDTH 747 0
DWIDTH 13 0
BBX 13 15 2 -3
BITMAP
FFF8
FFF8
0700
0F00
0E00
0E00
0E00
1E00
1E00
1C00
1C00
1C00
0C00
0C00
1C00
ENDCHAR
STARTCHAR tcommaaccent
ENCODING 355
SWIDTH 437 0
DWIDTH 7 0
BBX 6 14 2 -3
BITMAP
38
78
FC
FC
70
70
70
F0
F0
F8
78
30
30
70
ENDCHAR
STARTCHAR Tcaron
ENCODING 356
SWIDTH 747 0
DWIDTH 13 0
BBX 13 15 2 0
BITMAP
0DC0
0700
0000
FFF8
FFF8
0700
0F00
0E00
0E00
0E00
1E00
1E00
1C00
1C00
1C00
ENDCHAR
STARTCHAR tcaron
ENCODING 357
SWIDTH 680 0
DWIDTH 11 0
BBX 11 12 2 0
BITMAP
00E0
38E0
79C0
FCC0
FD80
7000
7000
7000
F000
F000
F800
7800
ENDCHAR
STARTCHAR Tbar
ENCODING 358
SWIDTH 747 0
DWIDTH 13 0
BBX 13 12 2 0
BITMAP
FFF8
FFF8
0700
0F00
0E00
0FC0
0FC0
1E00
1E00
1C00
1C00
1C00
ENDCHAR
STARTCHAR tbar
ENCODING 359
SWIDTH 437 0
DWIDTH 7 0
BBX 6 11 2 0
BITMAP
38
78
FC
FC
70
FC
FC
F0
F0
F8
78
ENDCHAR
STARTCHAR Utilde
ENCODING 360
SWIDTH 759 0
DWIDTH 13 0
BBX 12 15 2 0
BITMAP
0FC0
1F80
0000
3870
7870
7070
70E0
70E0
F0E0
F0E0
E0C0
E1C0
F1C0
7F80
3F00
ENDCHAR
STARTCHAR utilde
ENCODING 361
SWIDTH 675 0
DWIDTH 11 0
BBX 10 12 2 0
BITMAP
1F80
3F00
0000
79C0
71C0
73C0
7380
F780
EF80
FB80
F780
6700
ENDCHAR
STARTCHAR Umacron
ENCODING 362
SWIDTH 759 0
DWIDTH 13 0
BBX 12 15 2 0
BITMAP
1F80
1F80
0000
3870
7870
7070
70E0
70E0
F0E0
F0E0
E0C0
E1C0
F1C0
7F80
3F00
ENDCHAR
STARTCHAR umacron
ENCODING 363
SWIDTH 675 0
DWIDTH 11 0
BBX 10 12 2 0
BITMAP
3F00
3F00
0000
79C0
71C0
73C0
7380
F780
EF80
FB80
F780
6700
ENDCHAR
STARTCHAR Ubreve
ENCODING 364
SWIDTH 759 0
DWIDTH 13 0
BBX 12 15 2 0
BITMAP
1B80
0F00
0000
3870
7870
7070
70E0
70E0
F0E0
F0E0
E0C0
E1C0
F1C0
7F80
3F00
ENDCHAR
STARTCHAR ubreve
ENCODING 365
SWIDTH 675 0
DWIDTH 11 0
BBX 10 12 2 0
BITMAP
3700
1E00
0000
79C0
71C0
73C0
7380
F780
EF80
FB80
F780
6700
ENDCHAR
STARTCHAR Uring
ENCODING 366
SWIDTH 759 0
DWIDTH 13 0
BBX 12 15 2 0
BITMAP
0700
0700
0000
3870
7870
7070
70E0
70E0
F0E0
F0E0
E0C0
E1C0
F1C0
7F80
3F00
ENDCHAR
STARTCHAR uring
ENCODING 367
SWIDTH 675 0
DWIDTH 11 0
BBX 10 12 2 0
BITMAP
0E00
0E00
0000
79C0
71C0
73C0
7380
F780
EF80
FB80
F780
6700
ENDCHAR
STARTCHAR Uhungarumlaut
ENCODING 368
SWIDTH 759 0
DWIDTH 13 0
BBX 12 15 2 0
BITMAP
06C0
1B00
0000
3870
7870
7070
70E0
70E0
F0E0
F0E0
E0C0
E1C0
F1C0
7F80
3F00
ENDCHAR
STARTCHAR uhungarumlaut
ENCODING 369
SWIDTH 675 0
DWIDTH 11 0
BBX 10 12 2 0
BITMAP
06C0
1B00
0000
79C0
71C0
73C0
7380
F780
EF80
FB80
F780
6700
ENDCHAR
STARTCHAR Uogonek
ENCODING 370
SWIDTH 759 0
DWIDTH 13 0
BBX 12 15 2 -3
BITMAP
3870
7870
7070
70E0
70E0
F0E0
F0E0
E0C0
E1C0
F1C0
7F80
3F00
0000
0C00
0E00
ENDCHAR
STARTCHAR uogonek
ENCODING 371
SWIDTH 675 0
DWIDTH 11 0
BBX 10 12 2 -3
BITMAP
79C0
71C0
73C0
7380
F780
EF80
FB80
F780
6700
0000
0C00
0E00
ENDCHAR
STARTCHAR Wcircumflex
ENCODING 372
SWIDTH 991 0
DWIDTH 17 0
BBX 16 15 3 0
BITMAP
01C0
0760
0000
E1C7
E3C6
E3CE
E7CC
E7DC
E7D8
EDF8
EDF0
F9F0
F9E0
F1E0
71C0
ENDCHAR
STARTCHAR wcircumflex
ENCODING 373
SWIDTH 878 0
DWIDTH 15 0
BBX 14 12 2 0
BITMAP
0380
0EC0
0000
E39C
E798
E7B8
EFB0
EFF0
FBE0
FBE0
F3C0
F3C0
ENDCHAR
STARTCHAR Ycircumflex
ENCODING 374
SWIDTH 681 0
DWIDTH 12 0
BBX 11 15 3 0
BITMAP
0E00
3B00
0000
E0E0
71C0
7380
7B00
3E00
3E00
3C00
3C00
3800
3800
3800
7800
ENDCHAR
STARTCHAR ycircumflex
ENCODING 375
SWIDTH 633 0
DWIDTH 11 0
BBX 12 15 1 -3
BITMAP
0700
1D80
0000
7870
38E0
38C0
39C0
3F80
3F00
1E00
1E00
1C00
3800
7800
F000
ENDCHAR
STARTCHAR Ydieresis
ENCODING 376
SWIDTH 681 0
DWIDTH 12 0
BBX 11 15 3 0
BITMAP
1980
1980
0000
E0E0
71C0
7380
7B00
3E00
3E00
3C00
3C00
3800
3800
3800
7800
ENDCHAR
STARTCHAR Zacute
ENCODING 377
SWIDTH 687 0
DWIDTH 12 0
BBX 12 15 1 0
BITMAP
01C0
0700
0000
1FF0
3FF0
01E0
03C0
0780
0F80
0F00
1E00
3C00
7800
FFC0
FFC0
ENDCHAR
STARTCHAR zacute
ENCODING 378
SWIDTH 630 0
DWIDTH 11 0
BBX 10 12 1 0
BITMAP
0380
0E00
0000
3FC0
3FC0
0780
0F00
1E00
3C00
7800
FF80
FF80
ENDCHAR
STARTCHAR Zdotaccent
ENCODING 379
SWIDTH 687 0
DWIDTH 12 0
BBX 12 15 1 0
BITMAP
0380
0380
0000
1FF0
3FF0
01E0
03C0
0780
0F80
0F00
1E00
3C00
7800
FFC0
FFC0
ENDCHAR
STARTCHAR zdotaccent
ENCODING 380
SWIDTH 630 0
DWIDTH 11 0
BBX 10 12 1 0
BITMAP
0E00
0E00
0000
3FC0
3FC0
0780
0F00
1E00
3C00
7800
FF80
FF80
ENDCHAR
STARTCHAR Zcaron
ENCODING 381
SWIDTH 687 0
DWIDTH 12 0
BBX 12 15 1 0
BITMAP
06E0
0380
0000
1FF0
3FF0
01E0
03C0
0780
0F80
0F00
1E00
3C00
7800
FFC0
FFC0
ENDCHAR
STARTCHAR zcaron
ENCODING 382
SWIDTH 630 0
DWIDTH 11 0
BBX 10 12 1 0
BITMAP
0DC0
0700
0000
3FC0
3FC0
0780
0F00
1E00
3C00
7800
FF80
FF80
ENDCHAR
STARTCHAR uni0186
ENCODING 390
SWIDTH 737 0
DWIDTH 13 0
BBX 12 12 2 0
BITMAP
1FC0
3FE0
21F0
00F0
00F0
00F0
00F0
00E0
01E0
83C0
FF80
FE00
ENDCHAR
STARTCHAR uni0189
ENCODING 393
SWIDTH 822 0
DWIDTH 14 0
BBX 14 12 1 0
BITMAP
1FF0
1FF8
3C3C
3C3C
383C
FF3C
FF3C
3838
7878
70F0
7FE0
7F80
ENDCHAR
STARTCHAR uni018E
ENCODING 398
SWIDTH 642 0
DWIDTH 11 0
BBX 11 12 1 0
BITMAP
3FE0
3FE0
01C0
01C0
01C0
3FC0
3FC0
0380
0380
0380
FF80
FF80
ENDCHAR
STARTCHAR florin
ENCODING 402
SWIDTH 687 0
DWIDTH 12 0
BBX 10 15 3 -3
BITMAP
07C0
0FC0
1C40
3C00
3C00
7E00
FE00
3800
7800
7000
7000
7000
7000
F000
E000
ENDCHAR
STARTCHAR uni0197
ENCODING 407
SWIDTH 361 0
DWIDTH 6 0
BBX 6 12 1 0
BITMAP
3C
3C
38
38
38
FC
FC
70
70
70
F0
F0
ENDCHAR
STARTCHAR uni019A
ENCODING 410
SWIDTH 343 0
DWIDTH 6 0
BBX 6 12 1 0
BITMAP
1C
3C
38
38
38
FC
FC
70
70
70
F0
E0
ENDCHAR
STARTCHAR uni019D
ENCODING 413
SWIDTH 789 0
DWIDTH 13 0
BBX 17 15 -3 -3
BITMAP
038380
03C380
03C300
03E300
03E300
077700
077700
063E00
073E00
0F1E00
0F1E00
0E0E00
8E0000
FC0000
F80000
ENDCHAR
STARTCHAR uni019F
ENCODING 415
SWIDTH 855 0
DWIDTH 15 0
BBX 14 12 2 0
BITMAP
07E0
1FF8
3C78
783C
703C
FFFC
FFFC
F078
F070
F0E0
7FC0
1F00
ENDCHAR
STARTCHAR Ohorn
ENCODING 416
SWIDTH 855 0
DWIDTH 15 0
BBX 17 12 2 0
BITMAP
07E380
1FFB80
3C7F00
783F00
703E00
F03C00
F03800
F07800
F07000
F0E000
7FC000
1F0000
ENDCHAR
STARTCHAR ohorn
ENCODING 417
SWIDTH 663 0
DWIDTH 11 0
BBX 13 9 1 0
BITMAP
0FB8
3FF8
79F0
71F0
E1E0
E1C0
F380
FF00
3C00
ENDCHAR
STARTCHAR Uhorn
ENCODING 431
SWIDTH 759 0
DWIDTH 13 0
BBX 15 12 2 0
BITMAP
387E
787E
707C
70EC
70F8
F0E0
F0E0
E0C0
E1C0
F1C0
7F80
3F00
ENDCHAR
STARTCHAR uhorn
ENCODING 432
SWIDTH 675 0
DWIDTH 11 0
BBX 13 9 2 0
BITMAP
79F8
71F8
73F0
73B0
F7E0
EF80
FB80
F780
6700
ENDCHAR
STARTCHAR uni01B5
ENCODING 437
SWIDTH 687 0
DWIDTH 12 0
BBX 12 12 1 0
BITMAP
1FF0
3FF0
01E0
03C0
0780
1F80
1F80
1E00
3C00
7800
FFC0
FFC0
ENDCHAR
STARTCHAR uni01B6
ENCODING 438
SWIDTH 630 0
DWIDTH 11 0
BBX 10 9 1 0
BITMAP
3FC0
3FC0
0780
3F00
3F00
3C00
7800
FF80
FF80
ENDCHAR
STARTCHAR uni01BB
ENCODING 443
SWIDTH 687 0
DWIDTH 12 0
BBX 11 12 1 0
BITMAP
1F80
3FE0
21E0
00E0
01E0
FFE0
FFE0
1E00
3800
7000
FFC0
FF80
ENDCHAR
STARTCHAR uni01BC
ENCODING 444
SWIDTH 687 0
DWIDTH 12 0
BBX 11 12 2 0
BITMAP
1FE0
3FE0
3000
3000
3E00
7F00
0780
03C0
03C0
8780
FF80
FE00
ENDCHAR
STARTCHAR uni01C0
ENCODING 448
SWIDTH 259 0
DWIDTH 4 0
BBX 5 15 1 -3
BITMAP
18
18
10
30
30
30
30
20
60
60
60
60
40
C0
C0
ENDCHAR
STARTCHAR uni01C2
ENCODING 450
SWIDTH 687 0
DWIDTH 12 0
BBX 11 15 1 -2
BITMAP
0300
0300
0200
0600
0600
7FE0
7FE0
0400
0C00
FFC0
FFC0
0C00
0800
1800
1800
ENDCHAR
STARTCHAR uni01C3
ENCODING 451
SWIDTH 343 0
DWIDTH 6 0
BBX 6 12 1 0
BITMAP
3C
3C
38
38
38
38
30
70
00
00
F0
F0
ENDCHAR
STARTCHAR uni01CD
ENCODING 461
SWIDTH 771 0
DWIDTH 13 0
BBX 12 15 1 0
BITMAP
0DC0
0700
0000
03C0
03C0
07C0
07C0
0DE0
0CE0
18E0
3FE0
3FE0
70F0
6070
E070
ENDCHAR
STARTCHAR uni01CE
ENCODING 462
SWIDTH 681 0
DWIDTH 12 0
BBX 11 12 1 0
BITMAP
0DC0
0700
0000
0FE0
1FE0
39C0
71C0
73C0
E7C0
EFC0
FB80
7380
ENDCHAR
STARTCHAR uni01CF
ENCODING 463
SWIDTH 361 0
DWIDTH 6 0
BBX 7 15 1 0
BITMAP
6E
38
00
3C
3C
38
38
38
78
78
70
70
70
F0
F0
ENDCHAR
STARTCHAR uni01D0
ENCODING 464
SWIDTH 343 0
DWIDTH 6 0
BBX 6 12 1 0
BITMAP
DC
70
00
38
38
70
70
70
70
70
E0
E0
ENDCHAR
STARTCHAR uni01D1
ENCODING 465
SWIDTH 855 0
DWIDTH 15 0
BBX 14 15 2 0
BITMAP
06E0
0380
0000
07E0
1FF8
3C78
783C
703C
F03C
F038
F078
F070
F0E0
7FC0
1F00
ENDCHAR
STARTCHAR uni01D2
ENCODING 466
SWIDTH 663 0
DWIDTH 11 0
BBX 10 12 1 0
BITMAP
1B80
0E00
0000
0F80
3FC0
79C0
71C0
E1C0
E1C0
F380
FF00
3C00
ENDCHAR
STARTCHAR uni01D3
ENCODING 467
SWIDTH 759 0
DWIDTH 13 0
BBX 12 15 2 0
BITMAP
0DC0
0700
0000
3870
7870
7070
70E0
70E0
F0E0
F0E0
E0C0
E1C0
F1C0
7F80
3F00
ENDCHAR
STARTCHAR uni01D4
ENCODING 468
SWIDTH 675 0
DWIDTH 11 0
BBX 10 12 2 0
BITMAP
1B80
0E00
0000
79C0
71C0
73C0
7380
F780
EF80
FB80
F780
6700
ENDCHAR
STARTCHAR uni01D5
ENCODING 469
SWIDTH 759 0
DWIDTH 13 0
BBX 12 18 2 0
BITMAP
0FC0
0FC0
0000
0CC0
0CC0
0000
3870
7870
7070
70E0
70E0
F0E0
F0E0
E0C0
E1C0
F1C0
7F80
3F00
ENDCHAR
STARTCHAR uni01D6
ENCODING 470
SWIDTH 675 0
DWIDTH 11 0
BBX 10 15 2 0
BITMAP
1F80
1F80
0000
0CC0
0CC0
0000
79C0
71C0
73C0
7380
F780
EF80
FB80
F780
6700
ENDCHAR
STARTCHAR uni01D7
ENCODING 471
SWIDTH 759 0
DWIDTH 13 0
BBX 12 18 2 0
BITMAP
01C0
0700
0000
0CC0
0CC0
0000
3870
7870
7070
70E0
70E0
F0E0
F0E0
E0C0
E1C0
F1C0
7F80
3F00
ENDCHAR
STARTCHAR uni01D8
ENCODING 472
SWIDTH 675 0
DWIDTH 11 0
BBX 10 15 2 0
BITMAP
0380
0E00
0000
0CC0
0CC0
0000
79C0
71C0
73C0
7380
F780
EF80
FB80
F780
6700
ENDCHAR
STARTCHAR uni01D9
ENCODING 473
SWIDTH 759 0
DWIDTH 13 0
BBX 12 18 2 0
BITMAP
0DC0
0700
0000
0CC0
0CC0
0000
3870
7870
7070
70E0
70E0
F0E0
F0E0
E0C0
E1C0
F1C0
7F80
3F00
ENDCHAR
STARTCHAR uni01DA
ENCODING 474
SWIDTH 675 0
DWIDTH 11 0
BBX 10 15 2 0
BITMAP
1B80
0E00
0000
0CC0
0CC0
0000
79C0
71C0
73C0
7380
F780
EF80
FB80
F780
6700
ENDCHAR
STARTCHAR uni01DB
ENCODING 475
SWIDTH 759 0
DWIDTH 13 0
BBX 12 18 2 0
BITMAP
0E00
0300
0000
0CC0
0CC0
0000
3870
7870
7070
70E0
70E0
F0E0
F0E0
E0C0
E1C0
F1C0
7F80
3F00
ENDCHAR
STARTCHAR uni01DC
ENCODING 476
SWIDTH 675 0
DWIDTH 11 0
BBX 10 15 2 0
BITMAP
1C00
0600
0000
0CC0
0CC0
0000
79C0
71C0
73C0
7380
F780
EF80
FB80
F780
6700
ENDCHAR
STARTCHAR uni01DD
ENCODING 477
SWIDTH 612 0
DWIDTH 10 0
BBX 9 9 1 0
BITMAP
3E00
FF80
8380
1F80
7F80
F700
E700
FE00
7800
ENDCHAR
STARTCHAR uni01DE
ENCODING 478
SWIDTH 771 0
DWIDTH 13 0
BBX 12 18 1 0
BITMAP
07E0
07E0
0000
0330
0330
0000
03C0
03C0
07C0
07C0
0DE0
0CE0
18E0
3FE0
3FE0
70F0
6070
E070
ENDCHAR
STARTCHAR uni01DF
ENCODING 479
SWIDTH 681 0
DWIDTH 12 0
BBX 11 15 1 0
BITMAP
0FC0
0FC0
0000
0CC0
0CC0
0000
0FE0
1FE0
39C0
71C0
73C0
E7C0
EFC0
FB80
7380
ENDCHAR
STARTCHAR uni01E0
ENCODING 480
SWIDTH 771 0
DWIDTH 13 0
BBX 12 18 1 0
BITMAP
0FC0
0FC0
0000
0380
0380
0000
03C0
03C0
07C0
07C0
0DE0
0CE0
18E0
3FE0
3FE0
70F0
6070
E070
ENDCHAR
STARTCHAR uni01E1
ENCODING 481
SWIDTH 681 0
DWIDTH 12 0
BBX 11 15 1 0
BITMAP
0FC0
0FC0
0000
0700
0700
0000
0FE0
1FE0
39C0
71C0
73C0
E7C0
EFC0
FB80
7380
ENDCHAR
STARTCHAR uni01E2
ENCODING 482
SWIDTH 1004 0
DWIDTH 17 0
BBX 18 15 0 0
BITMAP
00FC00
00FC00
000000
007FC0
00FFC0
00F800
01F000
037000
077F00
0E7F00
0CF000
1FE000
3FE000
70FF00
C1FF00
ENDCHAR
STARTCHAR uni01E3
ENCODING 483
SWIDTH 987 0
DWIDTH 17 0
BBX 15 12 2 0
BITMAP
07E0
07E0
0000
0FDC
1FFE
39CE
73DC
F3FC
E7F0
EF82
FBFE
71F8
ENDCHAR
STARTCHAR uni01E4
ENCODING 484
SWIDTH 755 0
DWIDTH 13 0
BBX 13 12 2 0
BITMAP
07F0
1FF0
3C10
7800
7000
F000
F0E0
F0E0
F1F8
F9F8
7FC0
3F80
ENDCHAR
STARTCHAR uni01E5
ENCODING 485
SWIDTH 674 0
DWIDTH 11 0
BBX 11 12 1 -3
BITMAP
07E0
1FE0
39E0
71C0
73C0
77C0
7DC0
7BC0
FFE0
FFE0
FF00
FE00
ENDCHAR
STARTCHAR Gcaron
ENCODING 486
SWIDTH 755 0
DWIDTH 13 0
BBX 12 15 2 0
BITMAP
0DC0
0700
0000
07F0
1FF0
3C10
7800
7000
F000
F0E0
F0E0
F1C0
F9C0
7FC0
3F80
ENDCHAR
STARTCHAR gcaron
ENCODING 487
SWIDTH 674 0
DWIDTH 11 0
BBX 11 15 1 -3
BITMAP
0DC0
0700
0000
07E0
1FE0
39E0
71C0
73C0
77C0
7DC0
7BC0
7380
8380
FF00
FE00
ENDCHAR
STARTCHAR uni01E8
ENCODING 488
SWIDTH 753 0
DWIDTH 13 0
BBX 12 15 1 0
BITMAP
1B80
0E00
0000
3C70
3CE0
39C0
3B80
3B00
7F00
7F00
7780
73C0
73C0
F1E0
E0F0
ENDCHAR
STARTCHAR uni01E9
ENCODING 489
SWIDTH 666 0
DWIDTH 11 0
BBX 11 15 1 0
BITMAP
3700
1C00
0000
1C00
3C00
3800
38E0
39C0
7B80
7700
7F00
7700
7780
F380
E3C0
ENDCHAR
STARTCHAR uni01EA
ENCODING 490
SWIDTH 855 0
DWIDTH 15 0
BBX 14 15 2 -3
BITMAP
07E0
1FF8
3C78
783C
703C
F03C
F038
F078
F070
F0E0
7FC0
1F00
0000
0600
0700
ENDCHAR
STARTCHAR uni01EB
ENCODING 491
SWIDTH 663 0
DWIDTH 11 0
BBX 10 12 1 -3
BITMAP
0F80
3FC0
79C0
71C0
E1C0
E1C0
F380
FF00
3C00
0000
1800
1C00
ENDCHAR
STARTCHAR uni01EC
ENCODING 492
SWIDTH 855 0
DWIDTH 15 0
BBX 14 18 2 -3
BITMAP
07E0
07E0
0000
07E0
1FF8
3C78
783C
703C
F03C
F038
F078
F070
F0E0
7FC0
1F00
0000
0600
0700
ENDCHAR
STARTCHAR uni01ED
ENCODING 493
SWIDTH 663 0
DWIDTH 11 0
BBX 10 15 1 -3
BITMAP
1F80
1F80
0000
0F80
3FC0
79C0
71C0
E1C0
E1C0
F380
FF00
3C00
0000
1800
1C00
ENDCHAR
STARTCHAR uni01F0
ENCODING 496
SWIDTH 407 0
DWIDTH 7 0
BBX 10 15 -1 -3
BITMAP
0DC0
0700
0000
0380
0380
0780
0700
0700
0700
0F00
0F00
0E00
8E00
FC00
F800
ENDCHAR
STARTCHAR uni01F4
ENCODING 500
SWIDTH 755 0
DWIDTH 13 0
BBX 12 15 2 0
BITMAP
01C0
0700
0000
07F0
1FF0
3C10
7800
7000
F000
F0E0
F0E0
F1C0
F9C0
7FC0
3F80
ENDCHAR
STARTCHAR uni01F5
ENCODING 501
SWIDTH 674 0
DWIDTH 11 0
BBX 11 15 1 -3
BITMAP
01C0
0700
0000
07E0
1FE0
39E0
71C0
73C0
77C0
7DC0
7BC0
7380
8380
FF00
FE00
ENDCHAR
STARTCHAR uni01F8
ENCODING 504
SWIDTH 789 0
DWIDTH 13 0
BBX 13 15 1 0
BITMAP
0E00
0300
0000
3838
3C38
3C30
3E30
3E30
7770
7770
63E0
63E0
61E0
E1E0
E0E0
ENDCHAR
STARTCHAR uni01F9
ENCODING 505
SWIDTH 675 0
DWIDTH 11 0
BBX 10 12 1 0
BITMAP
1C00
0600
0000
3980
7BC0
77C0
7FC0
7BC0
7380
F380
E380
E780
ENDCHAR
STARTCHAR Aringacute
ENCODING 506
SWIDTH 771 0
DWIDTH 13 0
BBX 12 18 1 0
BITMAP
00E0
0380
0000
01C0
01C0
0000
03C0
03C0
07C0
07C0
0DE0
0CE0
18E0
3FE0
3FE0
70F0
6070
E070
ENDCHAR
STARTCHAR aringacute
ENCODING 507
SWIDTH 681 0
DWIDTH 12 0
BBX 11 15 1 0
BITMAP
01C0
0700
0000
0380
0380
0000
0FE0
1FE0
39C0
71C0
73C0
E7C0
EFC0
FB80
7380
ENDCHAR
STARTCHAR AEacute
ENCODING 508
SWIDTH 1004 0
DWIDTH 17 0
BBX 18 15 0 0
BITMAP
001C00
007000
000000
007FC0
00FFC0
00F800
01F000
037000
077F00
0E7F00
0CF000
1FE000
3FE000
70FF00
C1FF00
ENDCHAR
STARTCHAR aeacute
ENCODING 509
SWIDTH 987 0
DWIDTH 17 0
BBX 15 12 2 0
BITMAP
0070
01C0
0000
0FDC
1FFE
39CE
73DC
F3FC
E7F0
EF82
FBFE
71F8
ENDCHAR
STARTCHAR Oslashacute
ENCODING 510
SWIDTH 855 0
DWIDTH 15 0
BBX 16 15 3 0
BITMAP
0070
01C0
0000
03FF
0FFC
1E3C
3C7E
38FE
79DE
7B9C
7F3C
7E38
7C70
3FE0
EF80
ENDCHAR
STARTCHAR oslashacute
ENCODING 511
SWIDTH 663 0
DWIDTH 11 0
BBX 12 12 2 0
BITMAP
01C0
0700
0000
07F0
1FE0
3DE0
3BE0
76E0
7CE0
79C0
7F80
FE00
ENDCHAR
STARTCHAR Scommaaccent
ENCODING 536
SWIDTH 639 0
DWIDTH 11 0
BBX 10 19 1 -7
BITMAP
0FC0
3FC0
3840
3800
3C00
3E00
0F80
0780
0380
C780
FF00
FC00
0000
1C00
1C00
3C00
0800
1800
3000
ENDCHAR
STARTCHAR scommaaccent
ENCODING 537
SWIDTH 527 0
DWIDTH 9 0
BBX 9 16 1 -7
BITMAP
1F80
3F80
3800
3C00
1E00
0F00
C700
FF00
FC00
0000
1C00
1C00
3C00
0800
1800
3000
ENDCHAR
STARTCHAR Tcommaaccent
ENCODING 538
SWIDTH 747 0
DWIDTH 13 0
BBX 13 19 2 -7
BITMAP
FFF8
FFF8
0700
0F00
0E00
0E00
0E00
1E00
1E00
1C00
1C00
1C00
0000
0E00
0E00
1E00
0400
0C00
1800
ENDCHAR
STARTCHAR tcommaaccent
ENCODING 539
SWIDTH 437 0
DWIDTH 7 0
BBX 6 18 2 -7
BITMAP
38
78
FC
FC
70
70
70
F0
F0
F8
78
00
70
70
F0
20
60
C0
ENDCHAR
STARTCHAR uni021E
ENCODING 542
SWIDTH 813 0
DWIDTH 14 0
BBX 13 15 2 0
BITMAP
0DC0
0700
0000
3C38
3838
3878
3870
7870
7FF0
7FF0
70F0
70E0
F0E0
E0E0
E1E0
ENDCHAR
STARTCHAR uni021F
ENCODING 543
SWIDTH 675 0
DWIDTH 11 0
BBX 10 15 1 0
BITMAP
3700
1C00
0000
3C00
3800
3800
3980
3BC0
77C0
7DC0
7BC0
7380
7380
E380
E780
ENDCHAR
STARTCHAR uni0226
ENCODING 550
SWIDTH 771 0
DWIDTH 13 0
BBX 12 15 1 0
BITMAP
0380
0380
0000
03C0
03C0
07C0
07C0
0DE0
0CE0
18E0
3FE0
3FE0
70F0
6070
E070
ENDCHAR
STARTCHAR uni0227
ENCODING 551
SWIDTH 681 0
DWIDTH 12 0
BBX 11 12 1 0
BITMAP
0700
0700
0000
0FE0
1FE0
39C0
71C0
73C0
E7C0
EFC0
FB80
7380
ENDCHAR
STARTCHAR uni0228
ENCODING 552
SWIDTH 642 0
DWIDTH 11 0
BBX 11 15 1 -3
BITMAP
3FE0
3FE0
3800
3800
3800
7F80
7F80
7000
7000
7000
FF80
FF80
0C00
0C00
1C00
ENDCHAR
STARTCHAR uni0229
ENCODING 553
SWIDTH 612 0
DWIDTH 10 0
BBX 9 12 1 -3
BITMAP
0F00
3F80
7380
7780
FF00
FC00
E080
FF80
3E00
1800
1800
3800
ENDCHAR
STARTCHAR uni022A
ENCODING 554
SWIDTH 855 0
DWIDTH 15 0
BBX 14 18 2 0
BITMAP
07E0
07E0
0000
0660
0660
0000
07E0
1FF8
3C78
783C
703C
F03C
F038
F078
F070
F0E0
7FC0
1F00
ENDCHAR
STARTCHAR uni022B
ENCODING 555
SWIDTH 663 0
DWIDTH 11 0
BBX 10 15 1 0
BITMAP
1F80
1F80
0000
0CC0
0CC0
0000
0F80
3FC0
79C0
71C0
E1C0
E1C0
F380
FF00
3C00
ENDCHAR
STARTCHAR uni022C
ENCODING 556
SWIDTH 855 0
DWIDTH 15 0
BBX 14 18 2 0
BITMAP
07E0
07E0
0000
03F0
07E0
0000
07E0
1FF8
3C78
783C
703C
F03C
F038
F078
F070
F0E0
7FC0
1F00
ENDCHAR
STARTCHAR uni022D
ENCODING 557
SWIDTH 663 0
DWIDTH 11 0
BBX 11 15 1 0
BITMAP
0FC0
0FC0
0000
07E0
0FC0
0000
0F80
3FC0
79C0
71C0
E1C0
E1C0
F380
FF00
3C00
ENDCHAR
STARTCHAR uni022E
ENCODING 558
SWIDTH 855 0
DWIDTH 15 0
BBX 14 15 2 0
BITMAP
0380
0380
0000
07E0
1FF8
3C78
783C
703C
F03C
F038
F078
F070
F0E0
7FC0
1F00
ENDCHAR
STARTCHAR uni022F
ENCODING 559
SWIDTH 663 0
DWIDTH 11 0
BBX 10 12 1 0
BITMAP
0E00
0E00
0000
0F80
3FC0
79C0
71C0
E1C0
E1C0
F380
FF00
3C00
ENDCHAR
STARTCHAR uni0230
ENCODING 560
SWIDTH 855 0
DWIDTH 15 0
BBX 14 18 2 0
BITMAP
07E0
07E0
0000
0380
0380
0000
07E0
1FF8
3C78
783C
703C
F03C
F038
F078
F070
F0E0
7FC0
1F00
ENDCHAR
STARTCHAR uni0231
ENCODING 561
SWIDTH 663 0
DWIDTH 11 0
BBX 10 15 1 0
BITMAP
1F80
1F80
0000
0E00
0E00
0000
0F80
3FC0
79C0
71C0
E1C0
E1C0
F380
FF00
3C00
ENDCHAR
STARTCHAR uni0232
ENCODING 562
SWIDTH 681 0
DWIDTH 12 0
BBX 11 15 3 0
BITMAP
3F00
3F00
0000
E0E0
71C0
7380
7B00
3E00
3E00
3C00
3C00
3800
3800
3800
7800
ENDCHAR
STARTCHAR uni0233
ENCODING 563
SWIDTH 633 0
DWIDTH 11 0
BBX 12 15 1 -3
BITMAP
1F80
1F80
0000
7870
38E0
38C0
39C0
3F80
3F00
1E00
1E00
1C00
3800
7800
F000
ENDCHAR
STARTCHAR uni0250
ENCODING 592
SWIDTH 681 0
DWIDTH 12 0
BBX 11 9 1 0
BITMAP
39C0
3BE0
7EE0
7CE0
79C0
71C0
7380
FF00
FE00
ENDCHAR
STARTCHAR uni0259
ENCODING 601
SWIDTH 612 0
DWIDTH 10 0
BBX 9 9 1 0
BITMAP
3E00
FF80
8380
1F80
7F80
F700
E700
FE00
7800
ENDCHAR
STARTCHAR uni025F
ENCODING 607
SWIDTH 464 0
DWIDTH 8 0
BBX 10 15 1 -6
BITMAP
01C0
03C0
0380
0380
0380
0380
0780
0700
0700
0700
3F80
3F80
8E00
FE00
F800
ENDCHAR
STARTCHAR uni0265
ENCODING 613
SWIDTH 675 0
DWIDTH 11 0
BBX 10 12 1 -3
BITMAP
79C0
71C0
7380
7380
F780
EF80
FB80
F700
6700
0700
0700
0F00
ENDCHAR
STARTCHAR uni0275
ENCODING 629
SWIDTH 663 0
DWIDTH 11 0
BBX 10 9 1 0
BITMAP
0F80
3FC0
79C0
FFC0
FFC0
E1C0
F380
FF00
3C00
ENDCHAR
STARTCHAR uni0279
ENCODING 633
SWIDTH 542 0
DWIDTH 9 0
BBX 9 9 1 0
BITMAP
0380
0380
0780
0700
0F00
1F00
7700
6F00
CE00
ENDCHAR
STARTCHAR uni0287
ENCODING 647
SWIDTH 437 0
DWIDTH 7 0
BBX 6 11 2 0
BITMAP
78
7C
3C
3C
38
38
38
FC
FC
78
70
ENDCHAR
STARTCHAR uni0289
ENCODING 649
SWIDTH 675 0
DWIDTH 11 0
BBX 10 9 2 0
BITMAP
79C0
71C0
73C0
FFC0
FFC0
EF80
FB80
F780
6700
ENDCHAR
STARTCHAR uni028C
ENCODING 652
SWIDTH 630 0
DWIDTH 11 0
BBX 10 9 2 0
BITMAP
0700
0F80
0F80
1B80
1B80
3380
73C0
61C0
E1C0
ENDCHAR
STARTCHAR uni028D
ENCODING 653
SWIDTH 878 0
DWIDTH 15 0
BBX 14 9 2 0
BITMAP
0F3C
0F3C
1F7C
1F7C
3FDC
37DC
779C
679C
E71C
ENDCHAR
STARTCHAR uni028E
ENCODING 654
SWIDTH 633 0
DWIDTH 11 0
BBX 12 12 1 0
BITMAP
00F0
01E0
01C0
0380
0780
0780
0FC0
1FC0
39C0
31C0
71C0
E1E0
ENDCHAR
STARTCHAR uni029E
ENCODING 670
SWIDTH 666 0
DWIDTH 11 0
BBX 11 12 1 -3
BITMAP
78E0
39E0
3DC0
1DC0
1FC0
1DC0
3BC0
7380
E380
0380
0780
0700
ENDCHAR
STARTCHAR uni02BB
ENCODING 699
SWIDTH 265 0
DWIDTH 4 0
BBX 4 5 2 7
BITMAP
30
60
F0
E0
E0
ENDCHAR
STARTCHAR afii57929
ENCODING 700
SWIDTH 265 0
DWIDTH 4 0
BBX 4 5 2 7
BITMAP
70
70
E0
60
C0
ENDCHAR
STARTCHAR afii64937
ENCODING 701
SWIDTH 265 0
DWIDTH 4 0
BBX 4 5 2 7
BITMAP
E0
E0
70
60
30
ENDCHAR
STARTCHAR circumflex
ENCODING 710
SWIDTH 663 0
DWIDTH 11 0
BBX 6 2 5 10
BITMAP
38
EC
ENDCHAR
STARTCHAR caron
ENCODING 711
SWIDTH 663 0
DWIDTH 11 0
BBX 6 2 5 10
BITMAP
DC
70
ENDCHAR
STARTCHAR uni02C8
ENCODING 712
SWIDTH 265 0
DWIDTH 4 0
BBX 3 5 3 7
BITMAP
E0
E0
E0
E0
60
ENDCHAR
STARTCHAR macron
ENCODING 713
SWIDTH 663 0
DWIDTH 11 0
BBX 6 2 5 10
BITMAP
FC
FC
ENDCHAR
STARTCHAR uni02CA
ENCODING 714
SWIDTH 663 0
DWIDTH 11 0
BBX 5 2 6 10
BITMAP
38
E0
ENDCHAR
STARTCHAR uni02CB
ENCODING 715
SWIDTH 663 0
DWIDTH 11 0
BBX 4 2 6 10
BITMAP
E0
30
ENDCHAR
STARTCHAR uni02CD
ENCODING 717
SWIDTH 663 0
DWIDTH 11 0
BBX 6 2 5 -3
BITMAP
FC
FC
ENDCHAR
STARTCHAR uni02CE
ENCODING 718
SWIDTH 663 0
DWIDTH 11 0
BBX 4 2 6 -3
BITMAP
E0
30
ENDCHAR
STARTCHAR uni02CF
ENCODING 719
SWIDTH 663 0
DWIDTH 11 0
BBX 5 2 6 -3
BITMAP
38
E0
ENDCHAR
STARTCHAR breve
ENCODING 728
SWIDTH 663 0
DWIDTH 11 0
BBX 6 2 5 10
BITMAP
DC
78
ENDCHAR
STARTCHAR dotaccent
ENCODING 729
SWIDTH 663 0
DWIDTH 11 0
BBX 3 2 7 10
BITMAP
E0
E0
ENDCHAR
STARTCHAR ring
ENCODING 730
SWIDTH 663 0
DWIDTH 11 0
BBX 3 2 7 10
BITMAP
E0
E0
ENDCHAR
STARTCHAR ogonek
ENCODING 731
SWIDTH 663 0
DWIDTH 11 0
BBX 3 2 4 -3
BITMAP
C0
E0
ENDCHAR
STARTCHAR tilde
ENCODING 732
SWIDTH 663 0
DWIDTH 11 0
BBX 7 2 5 10
BITMAP
7E
FC
ENDCHAR
STARTCHAR hungarumlaut
ENCODING 733
SWIDTH 663 0
DWIDTH 11 0
BBX 7 2 6 10
BITMAP
36
D8
ENDCHAR
STARTCHAR uni02EE
ENCODING 750
SWIDTH 530 0
DWIDTH 9 0
BBX 9 5 2 7
BITMAP
7380
7780
F700
3300
E600
ENDCHAR
STARTCHAR uni037E
ENCODING 894
SWIDTH 343 0
DWIDTH 6 0
BBX 6 12 1 -3
BITMAP
3C
3C
38
00
00
00
78
70
70
30
70
E0
ENDCHAR
STARTCHAR tonos
ENCODING 900
SWIDTH 663 0
DWIDTH 11 0
BBX 5 2 6 10
BITMAP
38
E0
ENDCHAR
STARTCHAR dieresistonos
ENCODING 901
SWIDTH 663 0
DWIDTH 11 0
BBX 6 5 5 10
BITMAP
1C
70
00
CC
CC
ENDCHAR
STARTCHAR anoteleia
ENCODING 903
SWIDTH 343 0
DWIDTH 12 0
BBX 3 2 5 4
BITMAP
E0
E0
ENDCHAR
STARTCHAR mu
ENCODING 956
SWIDTH 681 0
DWIDTH 12 0
BBX 11 12 1 -3
BITMAP
38E0
39E0
39C0
39C0
7BC0
77C0
7DC0
7F80
7B80
F000
E000
E000
ENDCHAR
STARTCHAR uni1E00
ENCODING 7680
SWIDTH 771 0
DWIDTH 13 0
BBX 12 15 1 -3
BITMAP
03C0
03C0
07C0
07C0
0DE0
0CE0
18E0
3FE0
3FE0
70F0
6070
E070
0000
0700
0700
ENDCHAR
STARTCHAR uni1E01
ENCODING 7681
SWIDTH 681 0
DWIDTH 12 0
BBX 11 12 1 -3
BITMAP
0FE0
1FE0
39C0
71C0
73C0
E7C0
EFC0
FB80
7380
0000
0E00
0E00
ENDCHAR
STARTCHAR uni1E02
ENCODING 7682
SWIDTH 660 0
DWIDTH 11 0
BBX 10 15 2 0
BITMAP
0E00
0E00
0000
3F80
3FC0
39C0
39C0
7380
7E00
7F00
7380
7380
E380
FF80
FE00
ENDCHAR
STARTCHAR uni1E03
ENCODING 7683
SWIDTH 681 0
DWIDTH 12 0
BBX 11 15 1 0
BITMAP
0E00
0E00
0000
1C00
3C00
3C00
39C0
3BE0
7FE0
74E0
79C0
71C0
7380
FF00
FE00
ENDCHAR
STARTCHAR uni1E04
ENCODING 7684
SWIDTH 660 0
DWIDTH 11 0
BBX 10 15 2 -3
BITMAP
3F80
3FC0
39C0
39C0
7380
7E00
7F00
7380
7380
E380
FF80
FE00
0000
1C00
1C00
ENDCHAR
STARTCHAR uni1E05
ENCODING 7685
SWIDTH 681 0
DWIDTH 12 0
BBX 11 15 1 -3
BITMAP
1C00
3C00
3C00
39C0
3BE0
7FE0
74E0
79C0
71C0
7380
FF00
FE00
0000
1C00
1C00
ENDCHAR
STARTCHAR uni1E06
ENCODING 7686
SWIDTH 660 0
DWIDTH 11 0
BBX 10 15 2 -3
BITMAP
3F80
3FC0
39C0
39C0
7380
7E00
7F00
7380
7380
E380
FF80
FE00
0000
3F00
3F00
ENDCHAR
STARTCHAR uni1E07
ENCODING 7687
SWIDTH 681 0
DWIDTH 12 0
BBX 11 15 1 -3
BITMAP
1C00
3C00
3C00
39C0
3BE0
7FE0
74E0
79C0
71C0
7380
FF00
FE00
0000
3F00
3F00
ENDCHAR
STARTCHAR uni1E08
ENCODING 7688
SWIDTH 737 0
DWIDTH 13 0
BBX 12 18 2 -3
BITMAP
01C0
0700
0000
07F0
1FF0
3C10
7800
7000
F000
F000
F000
F000
F840
7FC0
3F80
0800
0C00
1C00
ENDCHAR
STARTCHAR uni1E09
ENCODING 7689
SWIDTH 548 0
DWIDTH 9 0
BBX 9 15 1 -3
BITMAP
0700
1C00
0000
0F80
3F80
7880
7000
F000
F000
F100
FF00
7E00
1000
1800
3800
ENDCHAR
STARTCHAR uni1E0A
ENCODING 7690
SWIDTH 822 0
DWIDTH 14 0
BBX 13 15 2 0
BITMAP
0700
0700
0000
3FE0
3FF0
3878
3878
7878
7078
7078
7070
70F0
F1E0
FFC0
FF00
ENDCHAR
STARTCHAR uni1E0B
ENCODING 7691
SWIDTH 681 0
DWIDTH 12 0
BBX 12 15 1 0
BITMAP
0380
0380
0000
00F0
00F0
00E0
0FE0
1FE0
39E0
71E0
73C0
E7C0
EDC0
FBC0
7380
ENDCHAR
STARTCHAR uni1E0C
ENCODING 7692
SWIDTH 822 0
DWIDTH 14 0
BBX 13 15 2 -3
BITMAP
3FE0
3FF0
3878
3878
7878
7078
7078
7070
70F0
F1E0
FFC0
FF00
0000
0E00
0E00
ENDCHAR
STARTCHAR uni1E0D
ENCODING 7693
SWIDTH 681 0
DWIDTH 12 0
BBX 12 15 1 -3
BITMAP
00F0
00F0
00E0
0FE0
1FE0
39E0
71E0
73C0
E7C0
EDC0
FBC0
7380
0000
0E00
0E00
ENDCHAR
STARTCHAR uni1E0E
ENCODING 7694
SWIDTH 822 0
DWIDTH 14 0
BBX 13 15 2 -3
BITMAP
3FE0
3FF0
3878
3878
7878
7078
7078
7070
70F0
F1E0
FFC0
FF00
0000
1F80
1F80
ENDCHAR
STARTCHAR uni1E0F
ENCODING 7695
SWIDTH 681 0
DWIDTH 12 0
BBX 12 15 1 -3
BITMAP
00F0
00F0
00E0
0FE0
1FE0
39E0
71E0
73C0
E7C0
EDC0
FBC0
7380
0000
3F00
3F00
ENDCHAR
STARTCHAR uni1E10
ENCODING 7696
SWIDTH 822 0
DWIDTH 14 0
BBX 13 15 2 -3
BITMAP
3FE0
3FF0
3878
3878
7878
7078
7078
7070
70F0
F1E0
FFC0
FF00
0600
0600
0E00
ENDCHAR
STARTCHAR uni1E11
ENCODING 7697
SWIDTH 681 0
DWIDTH 12 0
BBX 12 15 1 -3
BITMAP
00F0
00F0
00E0
0FE0
1FE0
39E0
71E0
73C0
E7C0
EDC0
FBC0
7380
0600
0600
0E00
ENDCHAR
STARTCHAR uni1E12
ENCODING 7698
SWIDTH 822 0
DWIDTH 14 0
BBX 13 15 2 -3
BITMAP
3FE0
3FF0
3878
3878
7878
7078
7078
7070
70F0
F1E0
FFC0
FF00
0000
0E00
3B00
ENDCHAR
STARTCHAR uni1E13
ENCODING 7699
SWIDTH 681 0
DWIDTH 12 0
BBX 12 15 1 -3
BITMAP
00F0
00F0
00E0
0FE0
1FE0
39E0
71E0
73C0
E7C0
EDC0
FBC0
7380
0000
0E00
3B00
ENDCHAR
STARTCHAR uni1E14
ENCODING 7700
SWIDTH 642 0
DWIDTH 11 0
BBX 11 18 1 0
BITMAP
1C00
0600
0000
1F80
1F80
0000
3FE0
3FE0
3800
3800
3800
7F80
7F80
7000
7000
7000
FF80
FF80
ENDCHAR
STARTCHAR uni1E15
ENCODING 7701
SWIDTH 612 0
DWIDTH 10 0
BBX 9 15 1 0
BITMAP
3800
0C00
0000
3F00
3F00
0000
0F00
3F80
7380
7780
FF00
FC00
E080
FF80
3E00
ENDCHAR
STARTCHAR uni1E16
ENCODING 7702
SWIDTH 642 0
DWIDTH 11 0
BBX 11 18 1 0
BITMAP
0380
0E00
0000
1F80
1F80
0000
3FE0
3FE0
3800
3800
3800
7F80
7F80
7000
7000
7000
FF80
FF80
ENDCHAR
STARTCHAR uni1E17
ENCODING 7703
SWIDTH 612 0
DWIDTH 10 0
BBX 9 15 1 0
BITMAP
0700
1C00
0000
3F00
3F00
0000
0F00
3F80
7380
7780
FF00
FC00
E080
FF80
3E00
ENDCHAR
STARTCHAR uni1E18
ENCODING 7704
SWIDTH 642 0
DWIDTH 11 0
BBX 11 15 1 -3
BITMAP
3FE0
3FE0
3800
3800
3800
7F80
7F80
7000
7000
7000
FF80
FF80
0000
1C00
7600
ENDCHAR
STARTCHAR uni1E19
ENCODING 7705
SWIDTH 612 0
DWIDTH 10 0
BBX 9 12 1 -3
BITMAP
0F00
3F80
7380
7780
FF00
FC00
E080
FF80
3E00
0000
1C00
7600
ENDCHAR
STARTCHAR uni1E1A
ENCODING 7706
SWIDTH 642 0
DWIDTH 11 0
BBX 11 15 1 -3
BITMAP
3FE0
3FE0
3800
3800
3800
7F80
7F80
7000
7000
7000
FF80
FF80
0000
3F00
7E00
ENDCHAR
STARTCHAR uni1E1B
ENCODING 7707
SWIDTH 612 0
DWIDTH 10 0
BBX 9 12 1 -3
BITMAP
0F00
3F80
7380
7780
FF00
FC00
E080
FF80
3E00
0000
7E00
FC00
ENDCHAR
STARTCHAR uni1E1C
ENCODING 7708
SWIDTH 642 0
DWIDTH 11 0
BBX 11 18 1 -3
BITMAP
1B80
0F00
0000
3FE0
3FE0
3800
3800
3800
7F80
7F80
7000
7000
7000
FF80
FF80
0C00
0C00
1C00
ENDCHAR
STARTCHAR uni1E1D
ENCODING 7709
SWIDTH 612 0
DWIDTH 10 0
BBX 9 15 1 -3
BITMAP
3700
1E00
0000
0F00
3F80
7380
7780
FF00
FC00
E080
FF80
3E00
1800
1800
3800
ENDCHAR
STARTCHAR uni1E1E
ENCODING 7710
SWIDTH 614 0
DWIDTH 10 0
BBX 11 15 1 0
BITMAP
0E00
0E00
0000
3FE0
3FE0
3800
3800
3800
7F80
7F80
7000
7000
7000
F000
E000
ENDCHAR
STARTCHAR uni1E1F
ENCODING 7711
SWIDTH 464 0
DWIDTH 8 0
BBX 10 18 1 -3
BITMAP
0E00
0E00
0000
07C0
1FC0
1C40
7F00
7F00
3800
3800
3800
7800
7000
7000
7000
7000
F000
E000
ENDCHAR
STARTCHAR uni1E20
ENCODING 7712
SWIDTH 755 0
DWIDTH 13 0
BBX 12 15 2 0
BITMAP
1F80
1F80
0000
07F0
1FF0
3C10
7800
7000
F000
F0E0
F0E0
F1C0
F9C0
7FC0
3F80
ENDCHAR
STARTCHAR uni1E21
ENCODING 7713
SWIDTH 674 0
DWIDTH 11 0
BBX 11 15 1 -3
BITMAP
1F80
1F80
0000
07E0
1FE0
39E0
71C0
73C0
77C0
7DC0
7BC0
7380
8380
FF00
FE00
ENDCHAR
STARTCHAR uni1E22
ENCODING 7714
SWIDTH 813 0
DWIDTH 14 0
BBX 13 15 2 0
BITMAP
0380
0380
0000
3C38
3838
3878
3870
7870
7FF0
7FF0
70F0
70E0
F0E0
E0E0
E1E0
ENDCHAR
STARTCHAR uni1E23
ENCODING 7715
SWIDTH 675 0
DWIDTH 11 0
BBX 10 15 1 0
BITMAP
1C00
1C00
0000
3C00
3800
3800
3980
3BC0
77C0
7DC0
7BC0
7380
7380
E380
E780
ENDCHAR
STARTCHAR uni1E24
ENCODING 7716
SWIDTH 813 0
DWIDTH 14 0
BBX 13 15 2 -3
BITMAP
3C38
3838
3878
3870
7870
7FF0
7FF0
70F0
70E0
F0E0
E0E0
E1E0
0000
0E00
0E00
ENDCHAR
STARTCHAR uni1E25
ENCODING 7717
SWIDTH 675 0
DWIDTH 11 0
BBX 10 15 1 -3
BITMAP
3C00
3800
3800
3980
3BC0
77C0
7DC0
7BC0
7380
7380
E380
E780
0000
1C00
1C00
ENDCHAR
STARTCHAR uni1E26
ENCODING 7718
SWIDTH 813 0
DWIDTH 14 0
BBX 13 15 2 0
BITMAP
0CC0
0CC0
0000
3C38
3838
3878
3870
7870
7FF0
7FF0
70F0
70E0
F0E0
E0E0
E1E0
ENDCHAR
STARTCHAR uni1E27
ENCODING 7719
SWIDTH 675 0
DWIDTH 11 0
BBX 10 15 1 0
BITMAP
6600
6600
0000
3C00
3800
3800
3980
3BC0
77C0
7DC0
7BC0
7380
7380
E380
E780
ENDCHAR
STARTCHAR uni1E28
ENCODING 7720
SWIDTH 813 0
DWIDTH 14 0
BBX 13 15 2 -3
BITMAP
3C38
3838
3878
3870
7870
7FF0
7FF0
70F0
70E0
F0E0
E0E0
E1E0
0600
0600
0E00
ENDCHAR
STARTCHAR uni1E29
ENCODING 7721
SWIDTH 675 0
DWIDTH 11 0
BBX 10 15 1 -3
BITMAP
3C00
3800
3800
3980
3BC0
77C0
7DC0
7BC0
7380
7380
E380
E780
0C00
0C00
1C00
ENDCHAR
STARTCHAR uni1E2A
ENCODING 7722
SWIDTH 813 0
DWIDTH 14 0
BBX 13 15 2 -3
BITMAP
3C38
3838
3878
3870
7870
7FF0
7FF0
70F0
70E0
F0E0
E0E0
E1E0
0000
1B80
0F00
ENDCHAR
STARTCHAR uni1E2B
ENCODING 7723
SWIDTH 675 0
DWIDTH 11 0
BBX 10 15 1 -3
BITMAP
3C00
3800
3800
3980
3BC0
77C0
7DC0
7BC0
7380
7380
E380
E780
0000
3700
1E00
ENDCHAR
STARTCHAR uni1E2C
ENCODING 7724
SWIDTH 361 0
DWIDTH 6 0
BBX 7 15 0 -3
BITMAP
1E
1E
1C
1C
1C
3C
3C
38
38
38
78
78
00
7E
FC
ENDCHAR
STARTCHAR uni1E2D
ENCODING 7725
SWIDTH 343 0
DWIDTH 6 0
BBX 7 15 0 -3
BITMAP
0E
1E
00
1C
1C
3C
38
38
38
38
78
70
00
7E
FC
ENDCHAR
STARTCHAR uni1E2E
ENCODING 7726
SWIDTH 361 0
DWIDTH 6 0
BBX 8 18 1 0
BITMAP
07
1C
00
33
33
00
3C
3C
38
38
38
78
78
70
70
70
F0
F0
ENDCHAR
STARTCHAR uni1E2F
ENCODING 7727
SWIDTH 343 0
DWIDTH 6 0
BBX 7 15 1 0
BITMAP
0E
38
00
66
66
00
38
38
70
70
70
70
70
E0
E0
ENDCHAR
STARTCHAR uni1E30
ENCODING 7728
SWIDTH 753 0
DWIDTH 13 0
BBX 12 15 1 0
BITMAP
0380
0E00
0000
3C70
3CE0
39C0
3B80
3B00
7F00
7F00
7780
73C0
73C0
F1E0
E0F0
ENDCHAR
STARTCHAR uni1E31
ENCODING 7729
SWIDTH 666 0
DWIDTH 11 0
BBX 11 15 1 0
BITMAP
0700
1C00
0000
1C00
3C00
3800
38E0
39C0
7B80
7700
7F00
7700
7780
F380
E3C0
ENDCHAR
STARTCHAR uni1E32
ENCODING 7730
SWIDTH 753 0
DWIDTH 13 0
BBX 12 15 1 -3
BITMAP
3C70
3CE0
39C0
3B80
3B00
7F00
7F00
7780
73C0
73C0
F1E0
E0F0
0000
0E00
0E00
ENDCHAR
STARTCHAR uni1E33
ENCODING 7731
SWIDTH 666 0
DWIDTH 11 0
BBX 11 15 1 -3
BITMAP
1C00
3C00
3800
38E0
39C0
7B80
7700
7F00
7700
7780
F380
E3C0
0000
0E00
0E00
ENDCHAR
STARTCHAR uni1E34
ENCODING 7732
SWIDTH 753 0
DWIDTH 13 0
BBX 12 15 1 -3
BITMAP
3C70
3CE0
39C0
3B80
3B00
7F00
7F00
7780
73C0
73C0
F1E0
E0F0
0000
1F80
1F80
ENDCHAR
STARTCHAR uni1E35
ENCODING 7733
SWIDTH 666 0
DWIDTH 11 0
BBX 11 15 1 -3
BITMAP
1C00
3C00
3800
38E0
39C0
7B80
7700
7F00
7700
7780
F380
E3C0
0000
3F00
3F00
ENDCHAR
STARTCHAR uni1E36
ENCODING 7734
SWIDTH 623 0
DWIDTH 11 0
BBX 9 15 2 -3
BITMAP
3C00
3800
3800
3800
7800
7000
7000
7000
7000
F000
FF80
FF80
0000
1C00
1C00
ENDCHAR
STARTCHAR uni1E37
ENCODING 7735
SWIDTH 343 0
DWIDTH 6 0
BBX 6 15 1 -3
BITMAP
1C
3C
38
38
38
78
78
70
70
70
F0
E0
00
70
70
ENDCHAR
STARTCHAR uni1E38
ENCODING 7736
SWIDTH 623 0
DWIDTH 11 0
BBX 9 18 2 -3
BITMAP
7E00
7E00
0000
3C00
3800
3800
3800
7800
7000
7000
7000
7000
F000
FF80
FF80
0000
1C00
1C00
ENDCHAR
STARTCHAR uni1E39
ENCODING 7737
SWIDTH 343 0
DWIDTH 6 0
BBX 7 18 1 -3
BITMAP
7E
7E
00
1C
3C
38
38
38
78
78
70
70
70
F0
E0
00
70
70
ENDCHAR
STARTCHAR uni1E3A
ENCODING 7738
SWIDTH 623 0
DWIDTH 11 0
BBX 9 15 2 -3
BITMAP
3C00
3800
3800
3800
7800
7000
7000
7000
7000
F000
FF80
FF80
0000
7E00
7E00
ENDCHAR
STARTCHAR uni1E3B
ENCODING 7739
SWIDTH 343 0
DWIDTH 6 0
BBX 7 15 0 -3
BITMAP
0E
1E
1C
1C
1C
3C
3C
38
38
38
78
70
00
FC
FC
ENDCHAR
STARTCHAR uni1E3C
ENCODING 7740
SWIDTH 623 0
DWIDTH 11 0
BBX 9 15 2 -3
BITMAP
3C00
3800
3800
3800
7800
7000
7000
7000
7000
F000
FF80
FF80
0000
1C00
7600
ENDCHAR
STARTCHAR uni1E3D
ENCODING 7741
SWIDTH 343 0
DWIDTH 6 0
BBX 7 15 0 -3
BITMAP
0E
1E
1C
1C
1C
3C
3C
38
38
38
78
70
00
38
EC
ENDCHAR
STARTCHAR uni1E3E
ENCODING 7742
SWIDTH 940 0
DWIDTH 16 0
BBX 16 15 1 0
BITMAP
0070
01C0
0000
3E0F
3E1F
3E1E
3E3E
3E3E
766E
77EE
67DC
679C
679C
E71C
E03C
ENDCHAR
STARTCHAR uni1E3F
ENCODING 7743
SWIDTH 991 0
DWIDTH 17 0
BBX 16 12 1 0
BITMAP
0070
01C0
0000
39CE
3BDF
77DF
7DE7
79EE
73CE
738E
E38E
E39E
ENDCHAR
STARTCHAR uni1E40
ENCODING 7744
SWIDTH 940 0
DWIDTH 16 0
BBX 16 15 1 0
BITMAP
01C0
01C0
0000
3E0F
3E1F
3E1E
3E3E
3E3E
766E
77EE
67DC
679C
679C
E71C
E03C
ENDCHAR
STARTCHAR uni1E41
ENCODING 7745
SWIDTH 991 0
DWIDTH 17 0
BBX 16 12 1 0
BITMAP
01C0
01C0
0000
39CE
3BDF
77DF
7DE7
79EE
73CE
738E
E38E
E39E
ENDCHAR
STARTCHAR uni1E42
ENCODING 7746
SWIDTH 940 0
DWIDTH 16 0
BBX 16 15 1 -3
BITMAP
3E0F
3E1F
3E1E
3E3E
3E3E
766E
77EE
67DC
679C
679C
E71C
E03C
0000
0380
0380
ENDCHAR
STARTCHAR uni1E43
ENCODING 7747
SWIDTH 991 0
DWIDTH 17 0
BBX 16 12 1 -3
BITMAP
39CE
3BDF
77DF
7DE7
79EE
73CE
738E
E38E
E39E
0000
0380
0380
ENDCHAR
STARTCHAR uni1E44
ENCODING 7748
SWIDTH 789 0
DWIDTH 13 0
BBX 13 15 1 0
BITMAP
0700
0700
0000
3838
3C38
3C30
3E30
3E30
7770
7770
63E0
63E0
61E0
E1E0
E0E0
ENDCHAR
STARTCHAR uni1E45
ENCODING 7749
SWIDTH 675 0
DWIDTH 11 0
BBX 10 12 1 0
BITMAP
0E00
0E00
0000
3980
7BC0
77C0
7FC0
7BC0
7380
F380
E380
E780
ENDCHAR
STARTCHAR uni1E46
ENCODING 7750
SWIDTH 789 0
DWIDTH 13 0
BBX 13 15 1 -3
BITMAP
3838
3C38
3C30
3E30
3E30
7770
7770
63E0
63E0
61E0
E1E0
E0E0
0000
0700
0700
ENDCHAR
STARTCHAR uni1E47
ENCODING 7751
SWIDTH 675 0
DWIDTH 11 0
BBX 10 12 1 -3
BITMAP
3980
7BC0
77C0
7FC0
7BC0
7380
F380
E380
E780
0000
1C00
1C00
ENDCHAR
STARTCHAR uni1E48
ENCODING 7752
SWIDTH 789 0
DWIDTH 13 0
BBX 13 15 1 -3
BITMAP
3838
3C38
3C30
3E30
3E30
7770
7770
63E0
63E0
61E0
E1E0
E0E0
0000
1F80
1F80
ENDCHAR
STARTCHAR uni1E49
ENCODING 7753
SWIDTH 675 0
DWIDTH 11 0
BBX 10 12 1 -3
BITMAP
3980
7BC0
77C0
7FC0
7BC0
7380
F380
E380
E780
0000
3F00
3F00
ENDCHAR
STARTCHAR uni1E4A
ENCODING 7754
SWIDTH 789 0
DWIDTH 13 0
BBX 13 15 1 -3
BITMAP
3838
3C38
3C30
3E30
3E30
7770
7770
63E0
63E0
61E0
E1E0
E0E0
0000
0700
1D80
ENDCHAR
STARTCHAR uni1E4B
ENCODING 7755
SWIDTH 675 0
DWIDTH 11 0
BBX 10 12 1 -3
BITMAP
3980
7BC0
77C0
7FC0
7BC0
7380
F380
E380
E780
0000
1C00
7600
ENDCHAR
STARTCHAR uni1E4C
ENCODING 7756
SWIDTH 855 0
DWIDTH 15 0
BBX 14 18 2 0
BITMAP
00E0
0380
0000
03F0
07E0
0000
07E0
1FF8
3C78
783C
703C
F03C
F038
F078
F070
F0E0
7FC0
1F00
ENDCHAR
STARTCHAR uni1E4D
ENCODING 7757
SWIDTH 663 0
DWIDTH 11 0
BBX 11 15 1 0
BITMAP
01C0
0700
0000
07E0
0FC0
0000
0F80
3FC0
79C0
71C0
E1C0
E1C0
F380
FF00
3C00
ENDCHAR
STARTCHAR uni1E4E
ENCODING 7758
SWIDTH 855 0
DWIDTH 15 0
BBX 14 18 2 0
BITMAP
0660
0660
0000
03F0
07E0
0000
07E0
1FF8
3C78
783C
703C
F03C
F038
F078
F070
F0E0
7FC0
1F00
ENDCHAR
STARTCHAR uni1E4F
ENCODING 7759
SWIDTH 663 0
DWIDTH 11 0
BBX 11 15 1 0
BITMAP
0CC0
0CC0
0000
07E0
0FC0
0000
0F80
3FC0
79C0
71C0
E1C0
E1C0
F380
FF00
3C00
ENDCHAR
STARTCHAR uni1E50
ENCODING 7760
SWIDTH 855 0
DWIDTH 15 0
BBX 14 18 2 0
BITMAP
0700
0180
0000
07E0
07E0
0000
07E0
1FF8
3C78
783C
703C
F03C
F038
F078
F070
F0E0
7FC0
1F00
ENDCHAR
STARTCHAR uni1E51
ENCODING 7761
SWIDTH 663 0
DWIDTH 11 0
BBX 10 15 1 0
BITMAP
1C00
0600
0000
1F80
1F80
0000
0F80
3FC0
79C0
71C0
E1C0
E1C0
F380
FF00
3C00
ENDCHAR
STARTCHAR uni1E52
ENCODING 7762
SWIDTH 855 0
DWIDTH 15 0
BBX 14 18 2 0
BITMAP
00E0
0380
0000
07E0
07E0
0000
07E0
1FF8
3C78
783C
703C
F03C
F038
F078
F070
F0E0
7FC0
1F00
ENDCHAR
STARTCHAR uni1E53
ENCODING 7763
SWIDTH 663 0
DWIDTH 11 0
BBX 10 15 1 0
BITMAP
0380
0E00
0000
1F80
1F80
0000
0F80
3FC0
79C0
71C0
E1C0
E1C0
F380
FF00
3C00
ENDCHAR
STARTCHAR uni1E54
ENCODING 7764
SWIDTH 645 0
DWIDTH 11 0
BBX 11 15 1 0
BITMAP
0380
0E00
0000
3FC0
3FE0
38E0
38E0
39C0
7F80
7F00
7000
7000
7000
E000
E000
ENDCHAR
STARTCHAR uni1E55
ENCODING 7765
SWIDTH 681 0
DWIDTH 12 0
BBX 11 15 1 -3
BITMAP
0380
0E00
0000
3DC0
3BE0
3EE0
3CE0
79E0
79C0
7380
7F00
7E00
F000
F000
E000
ENDCHAR
STARTCHAR uni1E56
ENCODING 7766
SWIDTH 645 0
DWIDTH 11 0
BBX 11 15 1 0
BITMAP
0700
0700
0000
3FC0
3FE0
38E0
38E0
39C0
7F80
7F00
7000
7000
7000
E000
E000
ENDCHAR
STARTCHAR uni1E57
ENCODING 7767
SWIDTH 681 0
DWIDTH 12 0
BBX 11 15 1 -3
BITMAP
0700
0700
0000
3DC0
3BE0
3EE0
3CE0
79E0
79C0
7380
7F00
7E00
F000
F000
E000
ENDCHAR
STARTCHAR uni1E58
ENCODING 7768
SWIDTH 708 0
DWIDTH 12 0
BBX 11 15 1 0
BITMAP
0700
0700
0000
3FC0
3FE0
38E0
38E0
39C0
7F80
7F00
7700
7380
7380
E3C0
E1C0
ENDCHAR
STARTCHAR uni1E59
ENCODING 7769
SWIDTH 542 0
DWIDTH 9 0
BBX 9 12 1 0
BITMAP
1C00
1C00
0000
3980
7B00
7700
7C00
7800
7000
F000
E000
E000
ENDCHAR
STARTCHAR uni1E5A
ENCODING 7770
SWIDTH 708 0
DWIDTH 12 0
BBX 11 15 1 -3
BITMAP
3FC0
3FE0
38E0
38E0
39C0
7F80
7F00
7700
7380
7380
E3C0
E1C0
0000
0E00
0E00
ENDCHAR
STARTCHAR uni1E5B
ENCODING 7771
SWIDTH 542 0
DWIDTH 9 0
BBX 9 12 1 -3
BITMAP
3980
7B00
7700
7C00
7800
7000
F000
E000
E000
0000
7000
7000
ENDCHAR
STARTCHAR uni1E5C
ENCODING 7772
SWIDTH 708 0
DWIDTH 12 0
BBX 11 18 1 -3
BITMAP
1F80
1F80
0000
3FC0
3FE0
38E0
38E0
39C0
7F80
7F00
7700
7380
7380
E3C0
E1C0
0000
0E00
0E00
ENDCHAR
STARTCHAR uni1E5D
ENCODING 7773
SWIDTH 542 0
DWIDTH 9 0
BBX 9 15 1 -3
BITMAP
7E00
7E00
0000
3980
7B00
7700
7C00
7800
7000
F000
E000
E000
0000
7000
7000
ENDCHAR
STARTCHAR uni1E5E
ENCODING 7774
SWIDTH 708 0
DWIDTH 12 0
BBX 11 15 1 -3
BITMAP
3FC0
3FE0
38E0
38E0
39C0
7F80
7F00
7700
7380
7380
E3C0
E1C0
0000
3F00
3F00
ENDCHAR
STARTCHAR uni1E5F
ENCODING 7775
SWIDTH 542 0
DWIDTH 9 0
BBX 9 12 1 -3
BITMAP
3980
7B00
7700
7C00
7800
7000
F000
E000
E000
0000
FC00
FC00
ENDCHAR
STARTCHAR uni1E60
ENCODING 7776
SWIDTH 639 0
DWIDTH 11 0
BBX 10 15 1 0
BITMAP
0E00
0E00
0000
0FC0
3FC0
3840
3800
3C00
3E00
0F80
0780
0380
C780
FF00
FC00
ENDCHAR
STARTCHAR uni1E61
ENCODING 7777
SWIDTH 527 0
DWIDTH 9 0
BBX 9 12 1 0
BITMAP
0E00
0E00
0000
1F80
3F80
3800
3C00
1E00
0F00
C700
FF00
FC00
ENDCHAR
STARTCHAR uni1E62
ENCODING 7778
SWIDTH 639 0
DWIDTH 11 0
BBX 10 15 1 -3
BITMAP
0FC0
3FC0
3840
3800
3C00
3E00
0F80
0780
0380
C780
FF00
FC00
0000
1C00
1C00
ENDCHAR
STARTCHAR uni1E63
ENCODING 7779
SWIDTH 527 0
DWIDTH 9 0
BBX 9 12 1 -3
BITMAP
1F80
3F80
3800
3C00
1E00
0F00
C700
FF00
FC00
0000
1C00
1C00
ENDCHAR
STARTCHAR uni1E64
ENCODING 7780
SWIDTH 639 0
DWIDTH 11 0
BBX 10 18 1 0
BITMAP
0700
0700
0000
0380
0E00
0000
0FC0
3FC0
3840
3800
3C00
3E00
0F80
0780
0380
C780
FF00
FC00
ENDCHAR
STARTCHAR uni1E65
ENCODING 7781
SWIDTH 527 0
DWIDTH 9 0
BBX 9 15 1 0
BITMAP
0E00
0E00
0000
0700
1C00
0000
1F80
3F80
3800
3C00
1E00
0F00
C700
FF00
FC00
ENDCHAR
STARTCHAR uni1E66
ENCODING 7782
SWIDTH 639 0
DWIDTH 11 0
BBX 10 18 1 0
BITMAP
0700
0700
0000
0DC0
0700
0000
0FC0
3FC0
3840
3800
3C00
3E00
0F80
0780
0380
C780
FF00
FC00
ENDCHAR
STARTCHAR uni1E67
ENCODING 7783
SWIDTH 527 0
DWIDTH 9 0
BBX 10 15 1 0
BITMAP
0700
0700
0000
0DC0
0700
0000
1F80
3F80
3800
3C00
1E00
0F00
C700
FF00
FC00
ENDCHAR
STARTCHAR uni1E68
ENCODING 7784
SWIDTH 639 0
DWIDTH 11 0
BBX 10 18 1 -3
BITMAP
0E00
0E00
0000
0FC0
3FC0
3840
3800
3C00
3E00
0F80
0780
0380
C780
FF00
FC00
0000
1C00
1C00
ENDCHAR
STARTCHAR uni1E69
ENCODING 7785
SWIDTH 527 0
DWIDTH 9 0
BBX 9 15 1 -3
BITMAP
1C00
1C00
0000
1F80
3F80
3800
3C00
1E00
0F00
C700
FF00
FC00
0000
1C00
1C00
ENDCHAR
STARTCHAR uni1E6A
ENCODING 7786
SWIDTH 747 0
DWIDTH 13 0
BBX 13 15 2 0
BITMAP
0700
0700
0000
FFF8
FFF8
0700
0F00
0E00
0E00
0E00
1E00
1E00
1C00
1C00
1C00
ENDCHAR
STARTCHAR uni1E6B
ENCODING 7787
SWIDTH 437 0
DWIDTH 7 0
BBX 6 14 2 0
BITMAP
38
38
00
38
78
FC
FC
70
70
70
F0
F0
F8
78
ENDCHAR
STARTCHAR uni1E6C
ENCODING 7788
SWIDTH 747 0
DWIDTH 13 0
BBX 13 15 2 -3
BITMAP
FFF8
FFF8
0700
0F00
0E00
0E00
0E00
1E00
1E00
1C00
1C00
1C00
0000
0E00
0E00
ENDCHAR
STARTCHAR uni1E6D
ENCODING 7789
SWIDTH 437 0
DWIDTH 7 0
BBX 6 14 2 -3
BITMAP
38
78
FC
FC
70
70
70
F0
F0
F8
78
00
70
70
ENDCHAR
STARTCHAR uni1E6E
ENCODING 7790
SWIDTH 747 0
DWIDTH 13 0
BBX 13 15 2 -3
BITMAP
FFF8
FFF8
0700
0F00
0E00
0E00
0E00
1E00
1E00
1C00
1C00
1C00
0000
3F00
3F00
ENDCHAR
STARTCHAR uni1E6F
ENCODING 7791
SWIDTH 437 0
DWIDTH 7 0
BBX 6 14 2 -3
BITMAP
38
78
FC
FC
70
70
70
F0
F0
F8
78
00
FC
FC
ENDCHAR
STARTCHAR uni1E70
ENCODING 7792
SWIDTH 747 0
DWIDTH 13 0
BBX 13 15 2 -3
BITMAP
FFF8
FFF8
0700
0F00
0E00
0E00
0E00
1E00
1E00
1C00
1C00
1C00
0000
0E00
3B00
ENDCHAR
STARTCHAR uni1E71
ENCODING 7793
SWIDTH 437 0
DWIDTH 7 0
BBX 7 14 1 -3
BITMAP
1C
3C
7E
7E
38
38
38
78
78
7C
3C
00
38
EC
ENDCHAR
STARTCHAR uni1E72
ENCODING 7794
SWIDTH 759 0
DWIDTH 13 0
BBX 12 15 2 -3
BITMAP
3870
7870
7070
70E0
70E0
F0E0
F0E0
E0C0
E1C0
F1C0
7F80
3F00
0000
3300
3300
ENDCHAR
STARTCHAR uni1E73
ENCODING 7795
SWIDTH 675 0
DWIDTH 11 0
BBX 10 12 2 -3
BITMAP
79C0
71C0
73C0
7380
F780
EF80
FB80
F780
6700
0000
3300
3300
ENDCHAR
STARTCHAR uni1E74
ENCODING 7796
SWIDTH 759 0
DWIDTH 13 0
BBX 12 15 2 -3
BITMAP
3870
7870
7070
70E0
70E0
F0E0
F0E0
E0C0
E1C0
F1C0
7F80
3F00
0000
3F00
7E00
ENDCHAR
STARTCHAR uni1E75
ENCODING 7797
SWIDTH 675 0
DWIDTH 11 0
BBX 10 12 2 -3
BITMAP
79C0
71C0
73C0
7380
F780
EF80
FB80
F780
6700
0000
3F00
7E00
ENDCHAR
STARTCHAR uni1E76
ENCODING 7798
SWIDTH 759 0
DWIDTH 13 0
BBX 12 15 2 -3
BITMAP
3870
7870
7070
70E0
70E0
F0E0
F0E0
E0C0
E1C0
F1C0
7F80
3F00
0000
0E00
3B00
ENDCHAR
STARTCHAR uni1E77
ENCODING 7799
SWIDTH 675 0
DWIDTH 11 0
BBX 10 12 2 -3
BITMAP
79C0
71C0
73C0
7380
F780
EF80
FB80
F780
6700
0000
1C00
7600
ENDCHAR
STARTCHAR uni1E78
ENCODING 7800
SWIDTH 759 0
DWIDTH 13 0
BBX 12 18 2 0
BITMAP
01C0
0700
0000
0FC0
1F80
0000
3870
7870
7070
70E0
70E0
F0E0
F0E0
E0C0
E1C0
F1C0
7F80
3F00
ENDCHAR
STARTCHAR uni1E79
ENCODING 7801
SWIDTH 675 0
DWIDTH 11 0
BBX 10 15 2 0
BITMAP
0700
1C00
0000
1F80
3F00
0000
79C0
71C0
73C0
7380
F780
EF80
FB80
F780
6700
ENDCHAR
STARTCHAR uni1E7A
ENCODING 7802
SWIDTH 759 0
DWIDTH 13 0
BBX 12 18 2 0
BITMAP
1980
1980
0000
1F80
1F80
0000
3870
7870
7070
70E0
70E0
F0E0
F0E0
E0C0
E1C0
F1C0
7F80
3F00
ENDCHAR
STARTCHAR uni1E7B
ENCODING 7803
SWIDTH 675 0
DWIDTH 11 0
BBX 10 15 2 0
BITMAP
3300
3300
0000
3F00
3F00
0000
79C0
71C0
73C0
7380
F780
EF80
FB80
F780
6700
ENDCHAR
STARTCHAR uni1E7C
ENCODING 7804
SWIDTH 765 0
DWIDTH 13 0
BBX 12 15 3 0
BITMAP
1F80
3F00
0000
E070
F060
F0E0
70C0
7180
7180
7300
7B00
7E00
3E00
3C00
3C00
ENDCHAR
STARTCHAR uni1E7D
ENCODING 7805
SWIDTH 630 0
DWIDTH 11 0
BBX 10 12 2 0
BITMAP
1F80
3F00
0000
E1C0
E180
F380
7300
7600
7600
7C00
7C00
3800
ENDCHAR
STARTCHAR uni1E7E
ENCODING 7806
SWIDTH 765 0
DWIDTH 13 0
BBX 12 15 3 -3
BITMAP
E070
F060
F0E0
70C0
7180
7180
7300
7B00
7E00
3E00
3C00
3C00
0000
1C00
1C00
ENDCHAR
STARTCHAR uni1E7F
ENCODING 7807
SWIDTH 630 0
DWIDTH 11 0
BBX 10 12 2 -3
BITMAP
E1C0
E180
F380
7300
7600
7600
7C00
7C00
3800
0000
1C00
1C00
ENDCHAR
STARTCHAR Wgrave
ENCODING 7808
SWIDTH 991 0
DWIDTH 17 0
BBX 16 15 3 0
BITMAP
0700
0180
0000
E1C7
E3C6
E3CE
E7CC
E7DC
E7D8
EDF8
EDF0
F9F0
F9E0
F1E0
71C0
ENDCHAR
STARTCHAR wgrave
ENCODING 7809
SWIDTH 878 0
DWIDTH 15 0
BBX 14 12 2 0
BITMAP
0E00
0300
0000
E39C
E798
E7B8
EFB0
EFF0
FBE0
FBE0
F3C0
F3C0
ENDCHAR
STARTCHAR Wacute
ENCODING 7810
SWIDTH 991 0
DWIDTH 17 0
BBX 16 15 3 0
BITMAP
00E0
0380
0000
E1C7
E3C6
E3CE
E7CC
E7DC
E7D8
EDF8
EDF0
F9F0
F9E0
F1E0
71C0
ENDCHAR
STARTCHAR wacute
ENCODING 7811
SWIDTH 878 0
DWIDTH 15 0
BBX 14 12 2 0
BITMAP
01C0
0700
0000
E39C
E798
E7B8
EFB0
EFF0
FBE0
FBE0
F3C0
F3C0
ENDCHAR
STARTCHAR Wdieresis
ENCODING 7812
SWIDTH 991 0
DWIDTH 17 0
BBX 16 15 3 0
BITMAP
0660
0660
0000
E1C7
E3C6
E3CE
E7CC
E7DC
E7D8
EDF8
EDF0
F9F0
F9E0
F1E0
71C0
ENDCHAR
STARTCHAR wdieresis
ENCODING 7813
SWIDTH 878 0
DWIDTH 15 0
BBX 14 12 2 0
BITMAP
0CC0
0CC0
0000
E39C
E798
E7B8
EFB0
EFF0
FBE0
FBE0
F3C0
F3C0
ENDCHAR
STARTCHAR uni1E86
ENCODING 7814
SWIDTH 991 0
DWIDTH 17 0
BBX 16 15 3 0
BITMAP
0380
0380
0000
E1C7
E3C6
E3CE
E7CC
E7DC
E7D8
EDF8
EDF0
F9F0
F9E0
F1E0
71C0
ENDCHAR
STARTCHAR uni1E87
ENCODING 7815
SWIDTH 878 0
DWIDTH 15 0
BBX 14 12 2 0
BITMAP
0700
0700
0000
E39C
E798
E7B8
EFB0
EFF0
FBE0
FBE0
F3C0
F3C0
ENDCHAR
STARTCHAR uni1E88
ENCODING 7816
SWIDTH 991 0
DWIDTH 17 0
BBX 16 15 3 -3
BITMAP
E1C7
E3C6
E3CE
E7CC
E7DC
E7D8
EDF8
EDF0
F9F0
F9E0
F1E0
71C0
0000
0700
0700
ENDCHAR
STARTCHAR uni1E89
ENCODING 7817
SWIDTH 878 0
DWIDTH 15 0
BBX 14 12 2 -3
BITMAP
E39C
E798
E7B8
EFB0
EFF0
FBE0
FBE0
F3C0
F3C0
0000
0E00
0E00
ENDCHAR
STARTCHAR uni1E8A
ENCODING 7818
SWIDTH 696 0
DWIDTH 12 0
BBX 13 15 0 0
BITMAP
0380
0380
0000
1C38
1E70
0EE0
0FC0
0F80
0700
0780
0F80
1F80
3BC0
71C0
E1E0
ENDCHAR
STARTCHAR uni1E8B
ENCODING 7819
SWIDTH 563 0
DWIDTH 10 0
BBX 11 12 0 0
BITMAP
0700
0700
0000
3CE0
1DC0
1F80
0F00
0E00
1F00
3F00
7780
E380
ENDCHAR
STARTCHAR uni1E8C
ENCODING 7820
SWIDTH 696 0
DWIDTH 12 0
BBX 13 15 0 0
BITMAP
0CC0
0CC0
0000
1C38
1E70
0EE0
0FC0
0F80
0700
0780
0F80
1F80
3BC0
71C0
E1E0
ENDCHAR
STARTCHAR uni1E8D
ENCODING 7821
SWIDTH 563 0
DWIDTH 10 0
BBX 11 12 0 0
BITMAP
1980
1980
0000
3CE0
1DC0
1F80
0F00
0E00
1F00
3F00
7780
E380
ENDCHAR
STARTCHAR uni1E8E
ENCODING 7822
SWIDTH 681 0
DWIDTH 12 0
BBX 11 15 3 0
BITMAP
0E00
0E00
0000
E0E0
71C0
7380
7B00
3E00
3E00
3C00
3C00
3800
3800
3800
7800
ENDCHAR
STARTCHAR uni1E8F
ENCODING 7823
SWIDTH 633 0
DWIDTH 11 0
BBX 12 15 1 -3
BITMAP
0700
0700
0000
7870
38E0
38C0
39C0
3F80
3F00
1E00
1E00
1C00
3800
7800
F000
ENDCHAR
STARTCHAR uni1E90
ENCODING 7824
SWIDTH 687 0
DWIDTH 12 0
BBX 12 15 1 0
BITMAP
0380
0EC0
0000
1FF0
3FF0
01E0
03C0
0780
0F80
0F00
1E00
3C00
7800
FFC0
FFC0
ENDCHAR
STARTCHAR uni1E91
ENCODING 7825
SWIDTH 630 0
DWIDTH 11 0
BBX 10 12 1 0
BITMAP
0700
1D80
0000
3FC0
3FC0
0780
0F00
1E00
3C00
7800
FF80
FF80
ENDCHAR
STARTCHAR uni1E92
ENCODING 7826
SWIDTH 687 0
DWIDTH 12 0
BBX 12 15 1 -3
BITMAP
1FF0
3FF0
01E0
03C0
0780
0F80
0F00
1E00
3C00
7800
FFC0
FFC0
0000
0E00
0E00
ENDCHAR
STARTCHAR uni1E93
ENCODING 7827
SWIDTH 630 0
DWIDTH 11 0
BBX 10 12 1 -3
BITMAP
3FC0
3FC0
0780
0F00
1E00
3C00
7800
FF80
FF80
0000
1C00
1C00
ENDCHAR
STARTCHAR uni1E94
ENCODING 7828
SWIDTH 687 0
DWIDTH 12 0
BBX 12 15 1 -3
BITMAP
1FF0
3FF0
01E0
03C0
0780
0F80
0F00
1E00
3C00
7800
FFC0
FFC0
0000
3F00
3F00
ENDCHAR
STARTCHAR uni1E95
ENCODING 7829
SWIDTH 630 0
DWIDTH 11 0
BBX 10 12 1 -3
BITMAP
3FC0
3FC0
0780
0F00
1E00
3C00
7800
FF80
FF80
0000
7E00
7E00
ENDCHAR
STARTCHAR uni1E96
ENCODING 7830
SWIDTH 675 0
DWIDTH 11 0
BBX 10 15 1 -3
BITMAP
3C00
3800
3800
3980
3BC0
77C0
7DC0
7BC0
7380
7380
E380
E780
0000
3F00
3F00
ENDCHAR
STARTCHAR uni1E97
ENCODING 7831
SWIDTH 437 0
DWIDTH 7 0
BBX 6 14 2 0
BITMAP
CC
CC
00
38
78
FC
FC
70
70
70
F0
F0
F8
78
ENDCHAR
STARTCHAR uni1E98
ENCODING 7832
SWIDTH 878 0
DWIDTH 15 0
BBX 14 12 2 0
BITMAP
0700
0700
0000
E39C
E798
E7B8
EFB0
EFF0
FBE0
FBE0
F3C0
F3C0
ENDCHAR
STARTCHAR uni1E99
ENCODING 7833
SWIDTH 633 0
DWIDTH 11 0
BBX 12 15 1 -3
BITMAP
0700
0700
0000
7870
38E0
38C0
39C0
3F80
3F00
1E00
1E00
1C00
3800
7800
F000
ENDCHAR
STARTCHAR uni1EA0
ENCODING 7840
SWIDTH 771 0
DWIDTH 13 0
BBX 12 15 1 -3
BITMAP
03C0
03C0
07C0
07C0
0DE0
0CE0
18E0
3FE0
3FE0
70F0
6070
E070
0000
0700
0700
ENDCHAR
STARTCHAR uni1EA1
ENCODING 7841
SWIDTH 681 0
DWIDTH 12 0
BBX 11 12 1 -3
BITMAP
0FE0
1FE0
39C0
71C0
73C0
E7C0
EFC0
FB80
7380
0000
0E00
0E00
ENDCHAR
STARTCHAR uni1EA4
ENCODING 7844
SWIDTH 771 0
DWIDTH 13 0
BBX 12 18 1 0
BITMAP
00E0
0380
0000
00E0
03B0
0000
03C0
03C0
07C0
07C0
0DE0
0CE0
18E0
3FE0
3FE0
70F0
6070
E070
ENDCHAR
STARTCHAR uni1EA5
ENCODING 7845
SWIDTH 681 0
DWIDTH 12 0
BBX 11 15 1 0
BITMAP
01C0
0700
0000
0380
0EC0
0000
0FE0
1FE0
39C0
71C0
73C0
E7C0
EFC0
FB80
7380
ENDCHAR
STARTCHAR uni1EA6
ENCODING 7846
SWIDTH 771 0
DWIDTH 13 0
BBX 12 18 1 0
BITMAP
0700
0180
0000
00E0
03B0
0000
03C0
03C0
07C0
07C0
0DE0
0CE0
18E0
3FE0
3FE0
70F0
6070
E070
ENDCHAR
STARTCHAR uni1EA7
ENCODING 7847
SWIDTH 681 0
DWIDTH 12 0
BBX 11 15 1 0
BITMAP
0E00
0300
0000
0380
0EC0
0000
0FE0
1FE0
39C0
71C0
73C0
E7C0
EFC0
FB80
7380
ENDCHAR
STARTCHAR uni1EAA
ENCODING 7850
SWIDTH 771 0
DWIDTH 13 0
BBX 12 18 1 0
BITMAP
03F0
07E0
0000
00E0
03B0
0000
03C0
03C0
07C0
07C0
0DE0
0CE0
18E0
3FE0
3FE0
70F0
6070
E070
ENDCHAR
STARTCHAR uni1EAB
ENCODING 7851
SWIDTH 681 0
DWIDTH 12 0
BBX 11 15 1 0
BITMAP
07E0
0FC0
0000
0380
0EC0
0000
0FE0
1FE0
39C0
71C0
73C0
E7C0
EFC0
FB80
7380
ENDCHAR
STARTCHAR uni1EAC
ENCODING 7852
SWIDTH 771 0
DWIDTH 13 0
BBX 12 18 1 -3
BITMAP
0380
0EC0
0000
03C0
03C0
07C0
07C0
0DE0
0CE0
18E0
3FE0
3FE0
70F0
6070
E070
0000
0700
0700
ENDCHAR
STARTCHAR uni1EAD
ENCODING 7853
SWIDTH 681 0
DWIDTH 12 0
BBX 11 15 1 -3
BITMAP
0700
1D80
0000
0FE0
1FE0
39C0
71C0
73C0
E7C0
EFC0
FB80
7380
0000
0E00
0E00
ENDCHAR
STARTCHAR uni1EAE
ENCODING 7854
SWIDTH 771 0
DWIDTH 13 0
BBX 12 18 1 0
BITMAP
01C0
0700
0000
0DC0
0780
0000
03C0
03C0
07C0
07C0
0DE0
0CE0
18E0
3FE0
3FE0
70F0
6070
E070
ENDCHAR
STARTCHAR uni1EAF
ENCODING 7855
SWIDTH 681 0
DWIDTH 12 0
BBX 11 15 1 0
BITMAP
0380
0E00
0000
1B80
0F00
0000
0FE0
1FE0
39C0
71C0
73C0
E7C0
EFC0
FB80
7380
ENDCHAR
STARTCHAR uni1EB0
ENCODING 7856
SWIDTH 771 0
DWIDTH 13 0
BBX 12 18 1 0
BITMAP
0E00
0300
0000
0DC0
0780
0000
03C0
03C0
07C0
07C0
0DE0
0CE0
18E0
3FE0
3FE0
70F0
6070
E070
ENDCHAR
STARTCHAR uni1EB1
ENCODING 7857
SWIDTH 681 0
DWIDTH 12 0
BBX 11 15 1 0
BITMAP
0E00
0300
0000
1B80
0F00
0000
0FE0
1FE0
39C0
71C0
73C0
E7C0
EFC0
FB80
7380
ENDCHAR
STARTCHAR uni1EB4
ENCODING 7860
SWIDTH 771 0
DWIDTH 13 0
BBX 12 18 1 0
BITMAP
07E0
0FC0
0000
0DC0
0780
0000
03C0
03C0
07C0
07C0
0DE0
0CE0
18E0
3FE0
3FE0
70F0
6070
E070
ENDCHAR
STARTCHAR uni1EB5
ENCODING 7861
SWIDTH 681 0
DWIDTH 12 0
BBX 11 15 1 0
BITMAP
0FC0
1F80
0000
1B80
0F00
0000
0FE0
1FE0
39C0
71C0
73C0
E7C0
EFC0
FB80
7380
ENDCHAR
STARTCHAR uni1EB6
ENCODING 7862
SWIDTH 771 0
DWIDTH 13 0
BBX 12 18 1 -3
BITMAP
0DC0
0780
0000
03C0
03C0
07C0
07C0
0DE0
0CE0
18E0
3FE0
3FE0
70F0
6070
E070
0000
0700
0700
ENDCHAR
STARTCHAR uni1EB7
ENCODING 7863
SWIDTH 681 0
DWIDTH 12 0
BBX 11 15 1 -3
BITMAP
1B80
0F00
0000
0FE0
1FE0
39C0
71C0
73C0
E7C0
EFC0
FB80
7380
0000
0E00
0E00
ENDCHAR
STARTCHAR uni1EB8
ENCODING 7864
SWIDTH 642 0
DWIDTH 11 0
BBX 11 15 1 -3
BITMAP
3FE0
3FE0
3800
3800
3800
7F80
7F80
7000
7000
7000
FF80
FF80
0000
1C00
1C00
ENDCHAR
STARTCHAR uni1EB9
ENCODING 7865
SWIDTH 612 0
DWIDTH 10 0
BBX 9 12 1 -3
BITMAP
0F00
3F80
7380
7780
FF00
FC00
E080
FF80
3E00
0000
1C00
1C00
ENDCHAR
STARTCHAR uni1EBC
ENCODING 7868
SWIDTH 642 0
DWIDTH 11 0
BBX 11 15 1 0
BITMAP
0FC0
1F80
0000
3FE0
3FE0
3800
3800
3800
7F80
7F80
7000
7000
7000
FF80
FF80
ENDCHAR
STARTCHAR uni1EBD
ENCODING 7869
SWIDTH 612 0
DWIDTH 10 0
BBX 9 12 1 0
BITMAP
1F80
3F00
0000
0F00
3F80
7380
7780
FF00
FC00
E080
FF80
3E00
ENDCHAR
STARTCHAR uni1EBE
ENCODING 7870
SWIDTH 642 0
DWIDTH 11 0
BBX 11 18 1 0
BITMAP
01C0
0700
0000
0380
0EC0
0000
3FE0
3FE0
3800
3800
3800
7F80
7F80
7000
7000
7000
FF80
FF80
ENDCHAR
STARTCHAR uni1EBF
ENCODING 7871
SWIDTH 612 0
DWIDTH 10 0
BBX 9 15 1 0
BITMAP
0380
0E00
0000
0700
1D80
0000
0F00
3F80
7380
7780
FF00
FC00
E080
FF80
3E00
ENDCHAR
STARTCHAR uni1EC0
ENCODING 7872
SWIDTH 642 0
DWIDTH 11 0
BBX 11 18 1 0
BITMAP
0E00
0300
0000
0380
0EC0
0000
3FE0
3FE0
3800
3800
3800
7F80
7F80
7000
7000
7000
FF80
FF80
ENDCHAR
STARTCHAR uni1EC1
ENCODING 7873
SWIDTH 612 0
DWIDTH 10 0
BBX 9 15 1 0
BITMAP
1C00
0600
0000
0700
1D80
0000
0F00
3F80
7380
7780
FF00
FC00
E080
FF80
3E00
ENDCHAR
STARTCHAR uni1EC4
ENCODING 7876
SWIDTH 642 0
DWIDTH 11 0
BBX 11 18 1 0
BITMAP
0FC0
1F80
0000
0380
0EC0
0000
3FE0
3FE0
3800
3800
3800
7F80
7F80
7000
7000
7000
FF80
FF80
ENDCHAR
STARTCHAR uni1EC5
ENCODING 7877
SWIDTH 612 0
DWIDTH 10 0
BBX 9 15 1 0
BITMAP
1F80
3F00
0000
0700
1D80
0000
0F00
3F80
7380
7780
FF00
FC00
E080
FF80
3E00
ENDCHAR
STARTCHAR uni1EC6
ENCODING 7878
SWIDTH 642 0
DWIDTH 11 0
BBX 11 18 1 -3
BITMAP
0700
1D80
0000
3FE0
3FE0
3800
3800
3800
7F80
7F80
7000
7000
7000
FF80
FF80
0000
1C00
1C00
ENDCHAR
STARTCHAR uni1EC7
ENCODING 7879
SWIDTH 612 0
DWIDTH 10 0
BBX 9 15 1 -3
BITMAP
0E00
3B00
0000
0F00
3F80
7380
7780
FF00
FC00
E080
FF80
3E00
0000
1C00
1C00
ENDCHAR
STARTCHAR uni1ECA
ENCODING 7882
SWIDTH 361 0
DWIDTH 6 0
BBX 6 15 1 -3
BITMAP
3C
3C
38
38
38
78
78
70
70
70
F0
F0
00
70
70
ENDCHAR
STARTCHAR uni1ECB
ENCODING 7883
SWIDTH 343 0
DWIDTH 6 0
BBX 6 15 1 -3
BITMAP
1C
3C
00
38
38
78
70
70
70
70
F0
E0
00
70
70
ENDCHAR
STARTCHAR uni1ECC
ENCODING 7884
SWIDTH 855 0
DWIDTH 15 0
BBX 14 15 2 -3
BITMAP
07E0
1FF8
3C78
783C
703C
F03C
F038
F078
F070
F0E0
7FC0
1F00
0000
0E00
0E00
ENDCHAR
STARTCHAR uni1ECD
ENCODING 7885
SWIDTH 663 0
DWIDTH 11 0
BBX 10 12 1 -3
BITMAP
0F80
3FC0
79C0
71C0
E1C0
E1C0
F380
FF00
3C00
0000
1C00
1C00
ENDCHAR
STARTCHAR uni1ED0
ENCODING 7888
SWIDTH 855 0
DWIDTH 15 0
BBX 14 18 2 0
BITMAP
00E0
0380
0000
01C0
0760
0000
07E0
1FF8
3C78
783C
703C
F03C
F038
F078
F070
F0E0
7FC0
1F00
ENDCHAR
STARTCHAR uni1ED1
ENCODING 7889
SWIDTH 663 0
DWIDTH 11 0
BBX 10 15 1 0
BITMAP
0380
0E00
0000
0380
0EC0
0000
0F80
3FC0
79C0
71C0
E1C0
E1C0
F380
FF00
3C00
ENDCHAR
STARTCHAR uni1ED2
ENCODING 7890
SWIDTH 855 0
DWIDTH 15 0
BBX 14 18 2 0
BITMAP
0700
0180
0000
01C0
0760
0000
07E0
1FF8
3C78
783C
703C
F03C
F038
F078
F070
F0E0
7FC0
1F00
ENDCHAR
STARTCHAR uni1ED3
ENCODING 7891
SWIDTH 663 0
DWIDTH 11 0
BBX 10 15 1 0
BITMAP
0E00
0300
0000
0380
0EC0
0000
0F80
3FC0
79C0
71C0
E1C0
E1C0
F380
FF00
3C00
ENDCHAR
STARTCHAR uni1ED6
ENCODING 7894
SWIDTH 855 0
DWIDTH 15 0
BBX 14 18 2 0
BITMAP
03F0
07E0
0000
01C0
0760
0000
07E0
1FF8
3C78
783C
703C
F03C
F038
F078
F070
F0E0
7FC0
1F00
ENDCHAR
STARTCHAR uni1ED7
ENCODING 7895
SWIDTH 663 0
DWIDTH 11 0
BBX 10 15 1 0
BITMAP
0FC0
1F80
0000
0380
0EC0
0000
0F80
3FC0
79C0
71C0
E1C0
E1C0
F380
FF00
3C00
ENDCHAR
STARTCHAR uni1ED8
ENCODING 7896
SWIDTH 855 0
DWIDTH 15 0
BBX 14 18 2 -3
BITMAP
01C0
0760
0000
07E0
1FF8
3C78
783C
703C
F03C
F038
F078
F070
F0E0
7FC0
1F00
0000
0E00
0E00
ENDCHAR
STARTCHAR uni1ED9
ENCODING 7897
SWIDTH 663 0
DWIDTH 11 0
BBX 10 15 1 -3
BITMAP
0700
1D80
0000
0F80
3FC0
79C0
71C0
E1C0
E1C0
F380
FF00
3C00
0000
1C00
1C00
ENDCHAR
STARTCHAR uni1EDA
ENCODING 7898
SWIDTH 855 0
DWIDTH 15 0
BBX 17 15 2 0
BITMAP
007000
01C000
000000
07E380
1FFB80
3C7F00
783F00
703E00
F03C00
F03800
F07800
F07000
F0E000
7FC000
1F0000
ENDCHAR
STARTCHAR uni1EDB
ENCODING 7899
SWIDTH 663 0
DWIDTH 11 0
BBX 13 12 1 0
BITMAP
01C0
0700
0000
0FB8
3FF8
79F0
71F0
E1E0
E1C0
F380
FF00
3C00
ENDCHAR
STARTCHAR uni1EDC
ENCODING 7900
SWIDTH 855 0
DWIDTH 15 0
BBX 17 15 2 0
BITMAP
01C000
006000
000000
07E380
1FFB80
3C7F00
783F00
703E00
F03C00
F03800
F07800
F07000
F0E000
7FC000
1F0000
ENDCHAR
STARTCHAR uni1EDD
ENCODING 7901
SWIDTH 663 0
DWIDTH 11 0
BBX 13 12 1 0
BITMAP
0E00
0300
0000
0FB8
3FF8
79F0
71F0
E1E0
E1C0
F380
FF00
3C00
ENDCHAR
STARTCHAR uni1EE0
ENCODING 7904
SWIDTH 855 0
DWIDTH 15 0
BBX 17 15 2 0
BITMAP
01F800
03F000
000000
07E380
1FFB80
3C7F00
783F00
703E00
F03C00
F03800
F07800
F07000
F0E000
7FC000
1F0000
ENDCHAR
STARTCHAR uni1EE1
ENCODING 7905
SWIDTH 663 0
DWIDTH 11 0
BBX 13 12 1 0
BITMAP
07E0
0FC0
0000
0FB8
3FF8
79F0
71F0
E1E0
E1C0
F380
FF00
3C00
ENDCHAR
STARTCHAR uni1EE2
ENCODING 7906
SWIDTH 855 0
DWIDTH 15 0
BBX 17 15 2 -3
BITMAP
07E380
1FFB80
3C7F00
783F00
703E00
F03C00
F03800
F07800
F07000
F0E000
7FC000
1F0000
000000
070000
070000
ENDCHAR
STARTCHAR uni1EE3
ENCODING 7907
SWIDTH 663 0
DWIDTH 11 0
BBX 13 12 1 -3
BITMAP
0FB8
3FF8
79F0
71F0
E1E0
E1C0
F380
FF00
3C00
0000
1C00
1C00
ENDCHAR
STARTCHAR uni1EE4
ENCODING 7908
SWIDTH 759 0
DWIDTH 13 0
BBX 12 15 2 -3
BITMAP
3870
7870
7070
70E0
70E0
F0E0
F0E0
E0C0
E1C0
F1C0
7F80
3F00
0000
0E00
0E00
ENDCHAR
STARTCHAR uni1EE5
ENCODING 7909
SWIDTH 675 0
DWIDTH 11 0
BBX 10 12 2 -3
BITMAP
79C0
71C0
73C0
7380
F780
EF80
FB80
F780
6700
0000
1C00
1C00
ENDCHAR
STARTCHAR uni1EE8
ENCODING 7912
SWIDTH 759 0
DWIDTH 13 0
BBX 15 15 2 0
BITMAP
00E0
0380
0000
387E
787E
707C
70EC
70F8
F0E0
F0E0
E0C0
E1C0
F1C0
7F80
3F00
ENDCHAR
STARTCHAR uni1EE9
ENCODING 7913
SWIDTH 675 0
DWIDTH 11 0
BBX 13 12 2 0
BITMAP
01C0
0700
0000
79F8
71F8
73F0
73B0
F7E0
EF80
FB80
F780
6700
ENDCHAR
STARTCHAR uni1EEA
ENCODING 7914
SWIDTH 759 0
DWIDTH 13 0
BBX 15 15 2 0
BITMAP
0700
0180
0000
387E
787E
707C
70EC
70F8
F0E0
F0E0
E0C0
E1C0
F1C0
7F80
3F00
ENDCHAR
STARTCHAR uni1EEB
ENCODING 7915
SWIDTH 675 0
DWIDTH 11 0
BBX 13 12 2 0
BITMAP
0E00
0300
0000
79F8
71F8
73F0
73B0
F7E0
EF80
FB80
F780
6700
ENDCHAR
STARTCHAR uni1EEE
ENCODING 7918
SWIDTH 759 0
DWIDTH 13 0
BBX 15 15 2 0
BITMAP
03F0
07E0
0000
387E
787E
707C
70EC
70F8
F0E0
F0E0
E0C0
E1C0
F1C0
7F80
3F00
ENDCHAR
STARTCHAR uni1EEF
ENCODING 7919
SWIDTH 675 0
DWIDTH 11 0
BBX 13 12 2 0
BITMAP
07E0
0FC0
0000
79F8
71F8
73F0
73B0
F7E0
EF80
FB80
F780
6700
ENDCHAR
STARTCHAR uni1EF0
ENCODING 7920
SWIDTH 759 0
DWIDTH 13 0
BBX 15 15 2 -3
BITMAP
387E
787E
707C
70EC
70F8
F0E0
F0E0
E0C0
E1C0
F1C0
7F80
3F00
0000
0E00
0E00
ENDCHAR
STARTCHAR uni1EF1
ENCODING 7921
SWIDTH 675 0
DWIDTH 11 0
BBX 13 12 2 -3
BITMAP
79F8
71F8
73F0
73B0
F7E0
EF80
FB80
F780
6700
0000
0E00
0E00
ENDCHAR
STARTCHAR Ygrave
ENCODING 7922
SWIDTH 681 0
DWIDTH 12 0
BBX 11 15 3 0
BITMAP
1C00
0600
0000
E0E0
71C0
7380
7B00
3E00
3E00
3C00
3C00
3800
3800
3800
7800
ENDCHAR
STARTCHAR ygrave
ENCODING 7923
SWIDTH 633 0
DWIDTH 11 0
BBX 12 15 1 -3
BITMAP
1C00
0600
0000
7870
38E0
38C0
39C0
3F80
3F00
1E00
1E00
1C00
3800
7800
F000
ENDCHAR
STARTCHAR uni1EF4
ENCODING 7924
SWIDTH 681 0
DWIDTH 12 0
BBX 11 15 3 -3
BITMAP
E0E0
71C0
7380
7B00
3E00
3E00
3C00
3C00
3800
3800
3800
7800
0000
1C00
1C00
ENDCHAR
STARTCHAR uni1EF5
ENCODING 7925
SWIDTH 633 0
DWIDTH 11 0
BBX 12 15 1 -6
BITMAP
7870
38E0
38C0
39C0
3F80
3F00
1E00
1E00
1C00
3800
7800
F000
0000
1C00
1C00
ENDCHAR
STARTCHAR uni1EF8
ENCODING 7928
SWIDTH 681 0
DWIDTH 12 0
BBX 11 15 3 0
BITMAP
1F80
3F00
0000
E0E0
71C0
7380
7B00
3E00
3E00
3C00
3C00
3800
3800
3800
7800
ENDCHAR
STARTCHAR uni1EF9
ENCODING 7929
SWIDTH 633 0
DWIDTH 11 0
BBX 12 15 1 -3
BITMAP
0FC0
1F80
0000
7870
38E0
38C0
39C0
3F80
3F00
1E00
1E00
1C00
3800
7800
F000
ENDCHAR
STARTCHAR uni2000
ENCODING 8192
SWIDTH 500 0
DWIDTH 8 0
BBX 1 1 0 0
BITMAP
00
ENDCHAR
STARTCHAR uni2001
ENCODING 8193
SWIDTH 1000 0
DWIDTH 17 0
BBX 1 1 0 0
BITMAP
00
ENDCHAR
STARTCHAR uni2002
ENCODING 8194
SWIDTH 500 0
DWIDTH 8 0
BBX 1 1 0 0
BITMAP
00
ENDCHAR
STARTCHAR uni2003
ENCODING 8195
SWIDTH 1000 0
DWIDTH 17 0
BBX 1 1 0 0
BITMAP
00
ENDCHAR
STARTCHAR uni2004
ENCODING 8196
SWIDTH 333 0
DWIDTH 6 0
BBX 1 1 0 0
BITMAP
00
ENDCHAR
STARTCHAR uni2005
ENCODING 8197
SWIDTH 250 0
DWIDTH 4 0
BBX 1 1 0 0
BITMAP
00
ENDCHAR
STARTCHAR uni2006
ENCODING 8198
SWIDTH 167 0
DWIDTH 3 0
BBX 1 1 0 0
BITMAP
00
ENDCHAR
STARTCHAR uni2007
ENCODING 8199
SWIDTH 687 0
DWIDTH 12 0
BBX 1 1 0 0
BITMAP
00
ENDCHAR
STARTCHAR uni2008
ENCODING 8200
SWIDTH 343 0
DWIDTH 6 0
BBX 1 1 0 0
BITMAP
00
ENDCHAR
STARTCHAR uni2009
ENCODING 8201
SWIDTH 200 0
DWIDTH 3 0
BBX 1 1 0 0
BITMAP
00
ENDCHAR
STARTCHAR uni200A
ENCODING 8202
SWIDTH 100 0
DWIDTH 2 0
BBX 1 1 0 0
BITMAP
00
ENDCHAR
STARTCHAR uni200B
ENCODING 8203
SWIDTH 0 0
DWIDTH 0 0
BBX 1 1 0 0
BITMAP
00
ENDCHAR
STARTCHAR uni2010
ENCODING 8208
SWIDTH 289 0
DWIDTH 5 0
BBX 4 2 2 4
BITMAP
F0
F0
ENDCHAR
STARTCHAR uni2011
ENCODING 8209
SWIDTH 289 0
DWIDTH 5 0
BBX 4 2 2 4
BITMAP
F0
F0
ENDCHAR
STARTCHAR figuredash
ENCODING 8210
SWIDTH 500 0
DWIDTH 9 0
BBX 8 2 1 4
BITMAP
FF
FF
ENDCHAR
STARTCHAR endash
ENCODING 8211
SWIDTH 500 0
DWIDTH 9 0
BBX 8 2 1 4
BITMAP
FF
FF
ENDCHAR
STARTCHAR emdash
ENCODING 8212
SWIDTH 1000 0
DWIDTH 17 0
BBX 16 1 2 5
BITMAP
FFFF
ENDCHAR
STARTCHAR afii00208
ENCODING 8213
SWIDTH 1000 0
DWIDTH 17 0
BBX 16 1 2 5
BITMAP
FFFF
ENDCHAR
STARTCHAR quoteleft
ENCODING 8216
SWIDTH 265 0
DWIDTH 4 0
BBX 4 5 2 7
BITMAP
30
60
F0
E0
E0
ENDCHAR
STARTCHAR quoteright
ENCODING 8217
SWIDTH 265 0
DWIDTH 4 0
BBX 4 5 2 7
BITMAP
70
70
E0
60
C0
ENDCHAR
STARTCHAR quotesinglbase
ENCODING 8218
SWIDTH 265 0
DWIDTH 4 0
BBX 4 6 0 -3
BITMAP
70
70
F0
60
60
C0
ENDCHAR
STARTCHAR quotereversed
ENCODING 8219
SWIDTH 265 0
DWIDTH 4 0
BBX 4 5 2 7
BITMAP
E0
E0
70
60
30
ENDCHAR
STARTCHAR quotedblleft
ENCODING 8220
SWIDTH 530 0
DWIDTH 9 0
BBX 9 5 2 7
BITMAP
3380
6600
7780
F700
E700
ENDCHAR
STARTCHAR quotedblright
ENCODING 8221
SWIDTH 530 0
DWIDTH 9 0
BBX 9 5 2 7
BITMAP
7380
7780
F700
3300
E600
ENDCHAR
STARTCHAR quotedblbase
ENCODING 8222
SWIDTH 530 0
DWIDTH 9 0
BBX 9 6 0 -3
BITMAP
7380
7780
7780
3300
6300
E600
ENDCHAR
STARTCHAR uni201F
ENCODING 8223
SWIDTH 530 0
DWIDTH 9 0
BBX 9 5 2 7
BITMAP
E700
F700
7780
6600
3380
ENDCHAR
STARTCHAR dagger
ENCODING 8224
SWIDTH 687 0
DWIDTH 12 0
BBX 9 15 3 -3
BITMAP
0E00
0E00
1E00
1C00
FF80
FF80
1C00
1800
3800
3800
3800
3800
7800
7000
7000
ENDCHAR
STARTCHAR daggerdbl
ENCODING 8225
SWIDTH 687 0
DWIDTH 12 0
BBX 10 15 2 -3
BITMAP
0700
0700
0E00
0E00
7FC0
7FC0
0E00
0C00
1C00
FF80
FF80
1C00
1C00
3800
3800
ENDCHAR
STARTCHAR bullet
ENCODING 8226
SWIDTH 687 0
DWIDTH 12 0
BBX 8 7 3 1
BITMAP
7F
7F
7F
7E
FE
FE
FE
ENDCHAR
STARTCHAR ellipsis
ENCODING 8230
SWIDTH 1000 0
DWIDTH 17 0
BBX 14 2 2 0
BITMAP
E30C
C31C
ENDCHAR
STARTCHAR perthousand
ENCODING 8240
SWIDTH 1332 0
DWIDTH 23 0
BBX 21 12 2 0
BITMAP
3C1C00
7C3000
EE6000
CCE000
FDC000
7B8000
0778F0
0EFDF8
1CDD98
39DFB8
70F9F0
E0F1E0
ENDCHAR
STARTCHAR guilsinglleft
ENCODING 8249
SWIDTH 386 0
DWIDTH 7 0
BBX 6 8 1 0
BITMAP
08
1C
38
70
F0
70
30
18
ENDCHAR
STARTCHAR guilsinglright
ENCODING 8250
SWIDTH 386 0
DWIDTH 7 0
BBX 6 8 1 0
BITMAP
60
30
38
3C
38
70
E0
40
ENDCHAR
STARTCHAR fraction
ENCODING 8260
SWIDTH 130 0
DWIDTH 2 0
BBX 14 12 -4 0
BITMAP
001C
0038
0070
00E0
01C0
0380
0700
0E00
1C00
3800
7000
E000
ENDCHAR
STARTCHAR oneinferior
ENCODING 8321
SWIDTH 539 0
DWIDTH 7 0
BBX 3 7 -12 -4
BITMAP
E0
60
60
40
C0
C0
C0
ENDCHAR
STARTCHAR twoinferior
ENCODING 8322
SWIDTH 539 0
DWIDTH 7 0
BBX 7 7 -10 -4
BITMAP
7C
06
06
0C
30
60
FC
ENDCHAR
STARTCHAR threeinferior
ENCODING 8323
SWIDTH 539 0
DWIDTH 7 0
BBX 6 7 -10 -4
BITMAP
7C
0C
08
78
18
1C
F0
ENDCHAR
STARTCHAR uni20A5
ENCODING 8357
SWIDTH 991 0
DWIDTH 17 0
BBX 16 15 1 -3
BITMAP
000E
001C
0018
39FE
3BFF
77FF
7DE7
79EE
73CE
738E
E78E
EF9E
0C00
1C00
3800
ENDCHAR
STARTCHAR uni20A6
ENCODING 8358
SWIDTH 789 0
DWIDTH 13 0
BBX 13 12 1 0
BITMAP
3838
3C38
3C30
3FF0
3FF0
7770
7770
7FE0
7FE0
61E0
E1E0
E0E0
ENDCHAR
STARTCHAR uni20A9
ENCODING 8361
SWIDTH 991 0
DWIDTH 17 0
BBX 16 12 3 0
BITMAP
E1C7
E3C6
E3CE
EFFC
EFFC
E7D8
EDF8
FFF8
FFF8
F9E0
F1E0
71C0
ENDCHAR
STARTCHAR Euro
ENCODING 8364
SWIDTH 737 0
DWIDTH 13 0
BBX 15 12 -1 0
BITMAP
00FE
03FE
0782
7FE0
7FE0
1E00
1E00
FFC0
FFC0
1F08
0FF8
07F0
ENDCHAR
STARTCHAR uni20AD
ENCODING 8365
SWIDTH 753 0
DWIDTH 13 0
BBX 12 12 1 0
BITMAP
3C70
3CE0
39C0
3B80
3B00
FFF0
FFF0
7780
73C0
73C0
F1E0
E0F0
ENDCHAR
STARTCHAR uni2103
ENCODING 8451
SWIDTH 966 0
DWIDTH 17 0
BBX 15 12 3 0
BITMAP
E0FE
A3FE
E782
0F00
0E00
1E00
1E00
1E00
1E00
1F08
0FF8
07F0
ENDCHAR
STARTCHAR uni2109
ENCODING 8457
SWIDTH 843 0
DWIDTH 14 0
BBX 13 12 3 0
BITMAP
EFF8
AFF8
EE00
0E00
0E00
1FE0
1FE0
1C00
1C00
1C00
3C00
3800
ENDCHAR
STARTCHAR trademark
ENCODING 8482
SWIDTH 901 0
DWIDTH 15 0
BBX 15 6 2 6
BITMAP
FFCE
FFDE
39DE
31EC
737C
735C
ENDCHAR
STARTCHAR uni212A
ENCODING 8490
SWIDTH 753 0
DWIDTH 13 0
BBX 12 12 1 0
BITMAP
3C70
3CE0
39C0
3B80
3B00
7F00
7F00
7780
73C0
73C0
F1E0
E0F0
ENDCHAR
STARTCHAR uni212B
ENCODING 8491
SWIDTH 771 0
DWIDTH 13 0
BBX 12 15 1 0
BITMAP
01C0
01C0
0000
03C0
03C0
07C0
07C0
0DE0
0CE0
18E0
3FE0
3FE0
70F0
6070
E070
ENDCHAR
STARTCHAR uni2132
ENCODING 8498
SWIDTH 614 0
DWIDTH 10 0
BBX 11 12 1 0
BITMAP
00E0
01E0
01C0
01C0
01C0
3FC0
3FC0
0380
0380
0380
FF80
FF80
ENDCHAR
STARTCHAR minus
ENCODING 8722
SWIDTH 687 0
DWIDTH 12 0
BBX 10 2 2 4
BITMAP
FFC0
FFC0
ENDCHAR
STARTCHAR fraction
ENCODING 8725
SWIDTH 130 0
DWIDTH 2 0
BBX 14 12 -4 0
BITMAP
001C
0038
0070
00E0
01C0
0380
0700
0E00
1C00
3800
7000
E000
ENDCHAR
STARTCHAR periodcentered
ENCODING 8729
SWIDTH 343 0
DWIDTH 12 0
BBX 3 2 5 4
BITMAP
E0
E0
ENDCHAR
STARTCHAR uni2236
ENCODING 8758
SWIDTH 343 0
DWIDTH 6 0
BBX 5 9 1 0
BITMAP
38
78
70
00
00
00
70
F0
E0
ENDCHAR
STARTCHAR uni2259
ENCODING 8793
SWIDTH 687 0
DWIDTH 12 0
BBX 11 9 1 2
BITMAP
0700
1D80
0000
7FE0
7FE0
0000
0000
FFC0
FFC0
ENDCHAR
STARTCHAR uni225A
ENCODING 8794
SWIDTH 687 0
DWIDTH 12 0
BBX 11 9 1 2
BITMAP
1B80
0E00
0000
7FE0
7FE0
0000
0000
FFC0
FFC0
ENDCHAR
STARTCHAR notequal
ENCODING 8800
SWIDTH 687 0
DWIDTH 12 0
BBX 13 15 0 -2
BITMAP
0038
0070
0060
00E0
01C0
3FF0
3FF0
0700
0600
7FE0
7FE0
3800
3000
7000
E000
ENDCHAR
STARTCHAR equivalence
ENCODING 8801
SWIDTH 687 0
DWIDTH 12 0
BBX 11 8 0 1
BITMAP
FFE0
FFE0
0000
FFE0
FFE0
0000
FFE0
FFE0
ENDCHAR
STARTCHAR uni2262
ENCODING 8802
SWIDTH 687 0
DWIDTH 12 0
BBX 13 15 -1 -2
BITMAP
0038
0070
0060
00E0
7FF0
7FF0
0300
7FF0
7FF0
0C00
7FF0
7FF0
3000
7000
E000
ENDCHAR
STARTCHAR lessequal
ENCODING 8804
SWIDTH 687 0
DWIDTH 12 0
BBX 11 13 2 -3
BITMAP
0020
00E0
03C0
1F00
FC00
7800
1C00
0700
0380
0080
0000
FFE0
FFE0
ENDCHAR
STARTCHAR greaterequal
ENCODING 8805
SWIDTH 687 0
DWIDTH 12 0
BBX 11 13 1 -3
BITMAP
2000
3800
1C00
0700
03C0
07E0
1F00
7800
E000
8000
0000
FFE0
FFE0
ENDCHAR
STARTCHAR uni226E
ENCODING 8814
SWIDTH 687 0
DWIDTH 12 0
BBX 13 15 1 -2
BITMAP
0038
0070
0060
00F0
01F0
01E0
0F80
7F00
3E00
0E00
1F80
39C0
3040
7000
E000
ENDCHAR
STARTCHAR uni226F
ENCODING 8815
SWIDTH 687 0
DWIDTH 12 0
BBX 13 15 0 -2
BITMAP
0038
0070
0060
10E0
1DC0
0F80
0380
07E0
07F0
0F80
3C00
7800
7000
7000
E000
ENDCHAR
STARTCHAR uni2270
ENCODING 8816
SWIDTH 687 0
DWIDTH 12 0
BBX 13 15 1 -4
BITMAP
0038
0070
0070
01E0
0FC0
7F80
3F00
0F00
0780
0DC0
1C40
3800
7FF0
7FF0
E000
ENDCHAR
STARTCHAR uni2271
ENCODING 8817
SWIDTH 687 0
DWIDTH 12 0
BBX 13 15 0 -4
BITMAP
0038
1070
1C60
0EE0
03C0
01E0
03F0
0F80
3E00
7C00
5C00
3800
7FF0
7FF0
E000
ENDCHAR
STARTCHAR fi
ENCODING -1
SWIDTH 695 0
DWIDTH 12 0
BBX 12 15 1 -3
BITMAP
07C0
0FC0
1C40
7FF0
7FF0
3CE0
38E0
38E0
79E0
79E0
71C0
71C0
7000
F000
F000
ENDCHAR
STARTCHAR fl
ENCODING -1
SWIDTH 695 0
DWIDTH 12 0
BBX 12 15 1 -3
BITMAP
07F0
1FF0
1CE0
7EE0
7EE0
38E0
39E0
39C0
79C0
71C0
71C0
73C0
7000
E000
E000
ENDCHAR
ENDFONT
